<?xml version="1.0" encoding="utf-8"?>
<!-- Generator: Adobe Illustrator 24.1.2, SVG Export Plug-In . SVG Version: 6.00 Build 0)  -->
<svg version="1.1" id="Слой_1" xmlns="http://www.w3.org/2000/svg" xmlns:xlink="http://www.w3.org/1999/xlink" x="0px" y="0px"
	 viewBox="0 0 756 322.5" style="enable-background:new 0 0 756 322.5;" xml:space="preserve">
<style type="text/css">
	.st0{fill:#FFFFFF;}
	.st1{fill:#FFFFFF;stroke:#FFFFFF;stroke-width:0.75;stroke-miterlimit:10;}
</style>
<g>
	<g>
		<g>
			<path class="st0" d="M447.2,121.7c-2,1.6-4.7,2.9-8.3,3.9c-3.6,1-6.8,1.6-9.6,1.6c-10.9,0-19.5-2.8-25.8-8.3s-9.4-13.3-9.4-23.5
				V53.7h-11.8V35.6H394V14.7l23.5-4.2v25.1h16l0.2,18l-16.2,0.1v37.4c0,4.6,1.1,8.4,3.3,11.3c2.2,3,5.4,4.5,9.7,4.5
				c1.6,0,3.2-0.2,4.8-0.5c1.6-0.4,3.2-1,4.9-1.8L447.2,121.7z"/>
		</g>
		<g>
			<path class="st0" d="M536.3,49.4c3.8-4.3,8.8-7.6,15-10.1c6.3-2.5,11.8-3.7,16.8-3.7c12,0,20.6,3.5,25.6,10.5
				c5.1,7.1,7.6,15.6,7.6,25.8v55.2h-23.9v-54c0-5.6-1.3-9.9-4-12.8s-6.6-4.5-11.6-4.5c-3.4,0-7,0.9-10.7,2.7s-7.2,3.9-10.3,6.2
				c0.1,1.2,0.2,2.4,0.4,3.7c0.1,1.2,0.2,2.4,0.2,3.7v55.2h-23.9V73.1c0-5.6-1.3-9.9-4-12.8s-6.5-4.5-11.4-4.5
				c-3.1,0-6.1,0.6-9.2,1.9c-3.1,1.3-6.1,2.9-8.9,4.8v64.7h-23.7V39l23.3-3v7c3-2,5-3,9.4-4.5c5.7-1.9,10.7-3,15.2-3
				c7,0,12.7,1.2,17.3,3.7C530.1,41.8,533.7,45.2,536.3,49.4z"/>
		</g>
		<g>
			<path class="st0" d="M634.8,0c3.8,0,7,1.3,9.6,3.8c2.6,2.6,3.9,5.7,3.9,9.5s-1.3,6.9-3.9,9.5c-2.6,2.6-5.8,3.8-9.6,3.8
				c-3.7,0-6.8-1.3-9.3-3.8c-2.6-2.6-3.8-5.7-3.8-9.5s1.3-6.9,3.8-9.5C628.1,1.3,631.2,0,634.8,0z M646.9,36l-0.2,91.1H623L622.9,36
				H646.9z"/>
		</g>
		<g>
			<path class="st0" d="M659.4,127.2l34.1-45.3l-32.8-45.8h25.8l21,29.9l21.9-29.9H756l-34.5,45.8l31.6,45.3H727l-20.5-28.4
				l-20.9,28.4H659.4z"/>
		</g>
		<g>
			<path class="st0" d="M198.4,81.5c0-26.6,19.5-45.5,46.7-45.5c18,0,29,7.8,34.8,15.6l-15.1,14c-4.2-6.1-10.5-9.4-18.6-9.4
				c-14,0-23.9,10.1-23.9,25.2s9.9,25.4,23.9,25.4c8.1,0,14.4-3.6,18.6-9.4l15.1,13.8c-5.9,8.1-16.7,15.8-34.8,15.8
				C217.9,127.2,198.4,108.3,198.4,81.5z"/>
		</g>
		<g>
			<path class="st0" d="M289.4,81.5c0-25.2,18.8-45.5,45.6-45.5c26.3,0,44.1,19.4,44.1,47.8v5.1h-65.5c1.5,10.9,10.4,20.1,25.3,20.1
				c7.5,0,17.8-3.2,23.5-8.7l10.3,14.7c-8.8,7.9-22.6,12-36.2,12C309.6,127.2,289.4,109.4,289.4,81.5z M334.8,54.2
				c-14.4,0-20.6,10.6-21.7,19.2h43.4C356,65.2,350.2,54.2,334.8,54.2z"/>
		</g>
	</g>
	<g>
		<g>
			<path class="st0" d="M92.3,91.5c0.6,0.3,0.7,1,0.2,1.5c-3.1,2.8-6.6,5.2-10.3,7.1c-6.6,3.2-13.7,4.8-20.9,4.7
				c-7.2-0.3-14.2-2.2-20.3-5.7s-11.2-8.5-14.9-14.3s-5.8-12.5-6.4-19.3c-0.4-6.8,0.8-13.6,3.5-19.7c1.4-3,3.1-5.9,5.2-8.5
				s4.5-4.9,7.1-7c5.2-4,11.3-6.7,17.7-7.8C46.9,24,41,27.1,36.4,31.4c-2.4,2.1-4.5,4.5-6.2,7.1c-1.8,2.6-3.1,5.5-4.3,8.4
				c-2.1,5.8-2.7,12-1.9,18.1c0.9,6.1,3.3,11.7,6.8,16.6c3.6,4.8,8.3,8.7,13.6,11.2s11.1,3.6,16.9,3.4c5.8-0.3,11.3-2,16.2-4.9
				c1.9-1.2,3.7-2.5,5.4-4c0.3-0.2,0.7-0.3,1-0.1L92.3,91.5z"/>
		</g>
		<g>
			<path class="st0" d="M110.3,107.7c0.4,0.4,0.3,1.1-0.1,1.5c-0.2,0.2-0.4,0.4-0.6,0.6c-2.6,2.3-5.4,4.5-8.3,6.4s-6,3.6-9.2,5
				s-6.5,2.6-9.8,3.5c-13.3,3.7-27.7,2.9-40.4-1.9s-23.8-13.5-31.3-24.7C3.2,86.8-0.4,73.5,0,60.3c0.5-13.1,5.2-26,13.1-36.1
				C21.2,14,32.3,6.5,44.5,3C56.8-0.6,70-0.2,81.8,4c5.9,2.1,11.4,5.1,16.3,8.9c5,3.7,9.3,8.3,12.7,13.2c-3.8-4.8-8.3-9.1-13.3-12.4
				S87,7.7,81.1,6c-11.5-3.4-24-2.9-35.3,1S24.9,18.4,18.3,28c-6.7,9.6-10.2,21.1-9.9,32.4c0.2,11.3,4.1,22.5,10.8,31.5
				c6.7,8.9,16.2,15.5,26.7,18.8s21.9,3.1,32-0.3c8.2-2.7,15.4-7.5,21.2-13.5c0.4-0.4,1.1-0.5,1.5-0.1c0.6,0.6,1.3,1.3,1.8,2
				C102.6,98.6,108.3,105.4,110.3,107.7z"/>
		</g>
		<g>
			<path class="st0" d="M149.8,41l-35.6,43.5l2,4.1l4.1,8.6c0.7,1.5,0.4,3.3-0.8,4.5l-2.9,2.7c-0.2,0.2-0.4,0.2-0.7,0.2
				c-0.1,0-0.2-0.1-0.3-0.2c0,0-0.1,0-0.1-0.1l-7.9-9.4c-0.8-0.9-1.6-1.8-2.5-2.6c-0.7-0.6-1.3-1.2-2.1-1.8c-1.4-1.1-3-2.2-4.6-3
				c-0.2-0.2-0.5-0.3-0.8-0.4l-9.1-4.8l-1.7-0.9c-0.4-0.2-0.5-0.6-0.3-1l2-3.4c0.9-1.5,2.6-2.2,4.2-1.8l13.7,3.1l13.9-18L91.8,47.8
				c-0.4-0.2-0.5-0.7-0.3-1l4.5-5.6c1.8-2.3,4.8-3.4,7.7-3l30.2,5.1l7.5-9.6c1.7-2.2,3.9-3.9,6.4-5l3.5-1.5c0.5-0.2,1-0.2,1.4-0.1
				c0.3,0.1,0.5,0.2,0.7,0.3l0,0c0.5,0.4,0.9,1.2,0.7,2l-0.6,3.7C152.9,36,151.7,38.7,149.8,41z"/>
		</g>
		<g>
			<g>
				<path class="st0" d="M155.2,85.4l-4.5,5.6c-0.2,0.2-0.5,0.3-0.7,0.2c-0.1,0-0.3-0.1-0.4-0.2l-17.2-23.3l13.3-16.1l10.5,25.7
					C157.5,79.9,157,83,155.2,85.4z"/>
			</g>
		</g>
	</g>
</g>
<g>
	<path class="st0" d="M397.4,241.7c-15.1,0-27.3-12.3-27.3-27.3s12.3-27.3,27.3-27.3c15.1,0,27.3,12.3,27.3,27.3l0,0
		C424.7,229.5,412.4,241.7,397.4,241.7z M397.4,230.4c8.9,0,16-7.2,16-16c0-8.8-7.2-16-16-16c-8.9,0-16,7.2-16,16
		C381.4,223.2,388.5,230.4,397.4,230.4z M340.2,241.7c-15.1,0-27.3-12.3-27.3-27.3s12.3-27.3,27.3-27.3c15.1,0,27.3,12.3,27.3,27.3
		l0,0C367.5,229.5,355.3,241.7,340.2,241.7z M340.2,230.4c8.9,0,16-7.2,16-16c0-8.8-7.2-16-16-16c-8.9,0-16,7.2-16,16
		C324.2,223.2,331.3,230.4,340.2,230.4z M310.3,214.1c0,15.3-12.3,27.7-27.3,27.7s-27.3-12.4-27.3-27.7s11.1-27,27.3-27
		c6,0,11.5,1.2,16,4.6v-15.8c0-3,2.7-5.5,5.7-5.5s5.7,2.5,5.7,5.5V214.1z M282.9,230.4c8.9,0,16-7.2,16-16c0-8.8-7.2-16-16-16
		c-8.9,0-16,7.2-16,16C266.9,223.2,274.1,230.4,282.9,230.4z"/>
</g>
<g>
	<path class="st0" d="M225.7,241.7c-15.1,0-27.3-12.3-27.3-27.3s12.3-27.3,27.3-27.3s27.3,12.3,27.3,27.3l0,0
		C253.1,229.5,240.9,241.7,225.7,241.7z M225.7,230.4c8.9,0,16-7.2,16-16c0-8.8-7.2-16-16-16c-8.9,0-16,7.2-16,16
		C209.7,223.2,216.9,230.4,225.7,230.4z"/>
</g>
<g>
	<g>
		<path class="st0" d="M547.4,229.9c0.1,0,0.2,0,0.4,0c0.1,0,0.2,0.1,0.1,0.1v0.1c0,3.8,0,7.6,0,11.4c0,0.1,0,0.1,0,0.1
			c-0.9,0-1.8,0-2.7,0c0-0.1,0-0.2,0-0.2c0-3.7,0-7.4,0-11.1c0-0.3-0.1-0.2,0.2-0.2c0.1,0,0.2,0,0.4,0
			C546.4,229.9,546.9,229.9,547.4,229.9z"/>
	</g>
	<g>
		<path class="st0" d="M520.6,200.7c-0.1,0.2-0.1,0.5-0.1,0.8c0,0.1-0.1,0.2-0.2,0.2c-0.4-0.1-0.9-0.1-1.3-0.2
			c-1.5-0.2-3.2-0.4-4.7-0.6c-1.4-0.2-2.7-0.4-4.1-0.5c-0.4-0.1-0.8-0.1-1.2-0.2c-0.1-0.1-0.1-0.1-0.1-0.2c0.2-1.2,0.3-2.4,0.4-3.6
			c0-0.1,0.1-0.2,0.2-0.2c1.1,0.1,2.1,0.2,3.2,0.4c1.2,0.2,2.6,0.4,3.7,0.5c1.4,0.2,2.7,0.4,4.1,0.5c0.4,0.1,0.4,0.1,0.3,0.4
			c-0.1,0.3-0.1,0.6-0.1,1c-0.1,0-0.1,0.1-0.1,0.1c-0.1,0.4-0.1,0.9-0.2,1.4C520.6,200.7,520.6,200.7,520.6,200.7z"/>
	</g>
	<g>
		<path class="st0" d="M572.9,206.4c0.1-0.2,0.1-0.6,0.1-0.8c0-0.1,0.1-0.1,0.2-0.1c1,0.1,2,0.2,3,0.4c1.1,0.1,2.1,0.2,3.2,0.4
			c1.2,0.1,2.3,0.3,3.5,0.5c0.5,0.1,1.1,0.1,1.5,0.2c0.1,0,0.2,0.1,0.2,0.2c0.1,0.6-0.1,1.2-0.2,1.8c-0.1,0.6-0.2,1.2-0.2,1.7
			c0,0.1-0.1,0.2-0.2,0.1c-1.4-0.2-2.8-0.4-4.2-0.6c-1.4-0.2-2.7-0.4-4-0.5c-1.1-0.1-2.1-0.2-3.1-0.4c-0.1,0-0.1-0.1-0.1-0.2
			c0.1-0.4,0.1-0.7,0.1-1.1c0.1,0,0.1-0.1,0.1-0.1c0.1-0.4,0.1-0.9,0.2-1.3C573,206.6,573,206.5,572.9,206.4z"/>
	</g>
	<g>
		<path class="st0" d="M571.1,213.7c0.1-0.2,0.2-0.4,0.3-0.7c0.1-0.1,0.1-0.1,0.2-0.1c2.2,1,4.4,2,6.6,3c1.2,0.6,2.4,1.1,3.7,1.7
			c0.2,0.1,0.2,0.1,0.1,0.3c-0.5,1-0.9,2-1.4,3c-0.1,0.1-0.1,0.1-0.2,0.1c-2.3-1.1-4.6-2.1-7-3.2c-1.1-0.5-2.2-1-3.3-1.5
			c-0.2-0.1-0.2-0.1-0.1-0.3c0.2-0.3,0.2-0.6,0.4-0.9c0.2-0.3,0.3-0.6,0.4-0.9C571,214.1,571.1,213.9,571.1,213.7z"/>
	</g>
	<g>
		<path class="st0" d="M522.6,193.4c-0.1,0.2-0.2,0.5-0.4,0.7c-0.1,0.1-0.1,0.1-0.2,0.1c-1.2-0.6-2.6-1.1-3.8-1.7
			c-1.5-0.7-3.2-1.4-4.8-2.2c-0.6-0.2-1.1-0.5-1.7-0.8c-0.1-0.1-0.1-0.1-0.1-0.2c0.5-1,1-2.1,1.4-3c0.1-0.1,0.1-0.1,0.2-0.1
			c1,0.5,2.1,0.9,3,1.4c2.4,1.1,4.8,2.2,7.2,3.3c0.1,0.1,0.2,0.1,0.1,0.3c-0.1,0.2-0.2,0.5-0.4,0.8c-0.1,0.2-0.2,0.4-0.2,0.6
			C522.8,192.7,522.6,193,522.6,193.4z"/>
	</g>
	<g>
		<path class="st0" d="M567.2,220.1c0.1-0.2,0.2-0.3,0.4-0.5c0.1-0.1,0.1-0.1,0.2,0c2.1,1.9,4.3,3.7,6.5,5.6
			c0.7,0.6,1.4,1.2,2.1,1.8c0.1,0.1,0.1,0.2,0.1,0.3c-0.7,0.8-1.4,1.5-2,2.4c-0.1,0.1-0.1,0.1-0.2,0c-1.9-1.7-3.9-3.3-5.8-5
			c-0.9-0.8-1.8-1.6-2.8-2.4c-0.1-0.1-0.1-0.1,0-0.2c0.2-0.2,0.4-0.4,0.6-0.7"/>
	</g>
	<g>
		<path class="st0" d="M526.4,186.9c-0.2,0.2-0.4,0.4-0.5,0.6c-0.1,0.1-0.1,0.1-0.2,0c-1.2-1-2.4-2-3.5-3c-1.4-1.2-2.7-2.4-4.1-3.6
			c-0.3-0.2-0.6-0.5-1-0.8c-0.1-0.1-0.1-0.1-0.1-0.2c0.7-0.8,1.4-1.5,2-2.3c0.1-0.1,0.2-0.1,0.2-0.1c1.4,1.2,2.7,2.4,4.1,3.6
			c1.5,1.2,3,2.6,4.5,3.9c0.1,0.1,0.1,0.1,0.1,0.2c-0.2,0.2-0.3,0.4-0.4,0.5c-0.1,0-0.1,0-0.1,0.1
			C527.1,186.1,526.8,186.5,526.4,186.9C526.4,186.8,526.4,186.9,526.4,186.9z"/>
	</g>
	<g>
		<path class="st0" d="M531.8,181.9c-0.1,0.1-0.2,0.2-0.4,0.2c-0.1,0.1-0.2,0.1-0.3-0.1c-0.7-1.1-1.4-2.1-2-3.2
			c-1.4-2.1-2.7-4.2-4-6.3c-0.1-0.1-0.1-0.2,0.1-0.2c0.8-0.5,1.6-1,2.4-1.5c0.1-0.1,0.2-0.1,0.2,0.1c1,1.5,2,3.1,3,4.7
			c1,1.6,2.1,3.2,3,4.8c0.2,0.2,0.2,0.2-0.1,0.4c-0.1,0.1-0.2,0.1-0.3,0.2c-0.1,0-0.1,0.1-0.2,0.1c-0.4,0.2-0.8,0.5-1.1,0.7
			C532,181.8,531.9,181.8,531.8,181.9z"/>
	</g>
	<g>
		<path class="st0" d="M561.7,225.3c0.2-0.1,0.4-0.2,0.5-0.4c0.1-0.1,0.2-0.1,0.2,0.1c0.8,1.2,1.5,2.4,2.3,3.6
			c1.1,1.7,2.2,3.4,3.3,5.1c0.2,0.2,0.4,0.5,0.5,0.8c0.1,0.1,0.1,0.2-0.1,0.2c-0.8,0.5-1.6,1.1-2.4,1.5c-0.1,0.1-0.2,0.1-0.2-0.1
			c-1.7-2.7-3.4-5.3-5.1-8c-0.4-0.5-0.7-1.1-1-1.5c-0.1-0.1-0.1-0.1,0.1-0.2c0.2-0.1,0.4-0.2,0.6-0.4"/>
	</g>
	<g>
		<path class="st0" d="M554.9,228.6c0.2-0.1,0.4-0.1,0.5-0.1c0.1-0.1,0.2-0.1,0.2,0.1c0.4,1.4,0.8,2.9,1.2,4.3
			c0.6,2.1,1.2,4.3,1.9,6.5c0.1,0.2,0.1,0.2-0.2,0.3c-0.8,0.2-1.6,0.5-2.4,0.7c-0.2,0.1-0.2,0-0.3-0.2c-0.4-1.2-0.7-2.4-1.1-3.6
			c-0.7-2.4-1.4-4.8-2.1-7.1c-0.1-0.2-0.1-0.2,0.2-0.2c0.2-0.1,0.3-0.1,0.4-0.1C553.9,228.9,554.4,228.8,554.9,228.6z"/>
	</g>
	<g>
		<path class="st0" d="M538.7,178.5c-0.2,0.1-0.4,0.1-0.5,0.1c-0.1,0.1-0.2,0-0.2-0.1c-0.2-0.8-0.5-1.6-0.7-2.4
			c-0.8-2.6-1.5-5.2-2.3-7.9c-0.1-0.2-0.1-0.3-0.1-0.5c-0.1-0.1-0.1-0.2,0.1-0.2c0.7-0.2,1.5-0.4,2.2-0.7c0.5-0.1,0.4-0.1,0.6,0.3
			c0.6,2,1.2,4,1.7,6c0.4,1.5,0.9,3,1.4,4.5c0.1,0.1,0,0.2-0.1,0.2c-0.2,0.1-0.3,0.1-0.4,0.1c-0.1-0.1-0.1,0-0.1,0
			c-0.4,0.1-0.7,0.2-1.1,0.4C538.9,178.5,538.8,178.5,538.7,178.5z"/>
	</g>
	<g>
		<path class="st0" d="M546.1,177.3c-0.5,0-0.5,0-0.5-0.5c0-3.6,0-7.3,0-11c0-0.2,0.1-0.2,0.2-0.2c0.8,0,1.5,0,2.4,0
			c0.1,0,0.2,0.1,0.2,0.2c0,3.7,0,7.6,0,11.3c0,0.1-0.1,0.2-0.2,0.2c-0.1,0-0.3,0-0.4,0C547.2,177.2,546.7,177.2,546.1,177.3z"/>
	</g>
	<g>
		<path class="st0" d="M540.1,229.1c0.4,0.1,0.4,0.1,0.2,0.4c-1,3.6-2.1,7.1-3,10.7c-0.1,0.2-0.1,0.2-0.2,0.1
			c-0.7-0.2-1.4-0.4-2.1-0.6c-0.2-0.1-0.2-0.1-0.1-0.2c0.5-1.8,1.1-3.6,1.5-5.4c0.5-1.8,1.1-3.6,1.5-5.5c0.1-0.2,0.1-0.2,0.2-0.1
			c0.1,0.1,0.2,0.1,0.4,0.1C539,228.8,539.6,228.9,540.1,229.1z"/>
	</g>
	<g>
		<path class="st0" d="M553.6,178.2c-0.4-0.1-0.4-0.1-0.3-0.5c0.8-2.9,1.7-5.9,2.5-8.9c0.2-0.6,0.4-1.2,0.5-1.8
			c0.1-0.1,0.1-0.2,0.2-0.1c0.7,0.2,1.4,0.4,2.2,0.6c0.2,0.1,0.1,0.1,0.1,0.2c-0.4,1.6-0.9,3.2-1.4,4.9c-0.6,2-1.1,4-1.7,6
			c-0.1,0.2-0.1,0.2-0.3,0.2c-0.1-0.1-0.1-0.1-0.2-0.1c-0.3-0.1-0.7-0.2-1-0.3C554,178.2,553.8,178.2,553.6,178.2z"/>
	</g>
	<g>
		<path class="st0" d="M560.3,181.2c-0.3-0.2-0.2-0.2-0.1-0.5c1.7-2.6,3.3-5.2,4.9-7.8c0.4-0.5,0.7-1.1,1-1.6
			c0.1-0.1,0.1-0.1,0.2-0.1c0.6,0.4,1.1,0.7,1.7,1.1c0.1,0.1,0.1,0.1,0.1,0.2c-1,1.5-2,3-2.9,4.6c-1.1,1.6-2.1,3.2-3.1,4.9
			c-0.1,0.2-0.2,0.2-0.4,0.1"/>
	</g>
	<g>
		<path class="st0" d="M533.1,226.1c0.2,0.2,0.2,0.2,0.1,0.5c-1.2,1.9-2.4,3.7-3.6,5.6c-0.8,1.2-1.6,2.5-2.4,3.7
			c-0.1,0.1-0.2,0.2-0.3,0.1c-0.5-0.4-1.1-0.7-1.6-1.1c-0.1-0.1-0.1-0.1-0.1-0.2c1.4-2.1,2.7-4.3,4.1-6.4c0.7-1,1.2-2,1.9-3
			c0.1-0.2,0.1-0.2,0.4-0.1c0,0,0.1,0,0.1,0.1C532.3,225.5,532.7,225.8,533.1,226.1z"/>
	</g>
	<g>
		<path class="st0" d="M527.4,221.4c0.1,0.1,0.1,0.2-0.1,0.3c-2.7,2.4-5.4,4.7-8.2,7c-0.1,0.1-0.2,0.2-0.4,0.4
			c-0.1,0.1-0.1,0.1-0.2,0c-0.4-0.5-0.8-0.9-1.2-1.4c-0.1-0.1-0.1-0.1,0.1-0.2c0.7-0.6,1.4-1.2,2.1-1.8c1.4-1.2,2.7-2.4,4.1-3.6
			c0.8-0.7,1.6-1.4,2.4-2.1c0.2-0.1,0.2-0.1,0.3,0.1C526.7,220.6,527.1,221,527.4,221.4z"/>
	</g>
	<g>
		<path class="st0" d="M566.2,185.8c-0.1-0.1-0.1-0.2,0.1-0.4c2.1-1.8,4.2-3.7,6.4-5.5c0.7-0.6,1.4-1.2,2.1-1.8
			c0.1-0.1,0.2-0.1,0.2,0c0.4,0.4,0.7,0.9,1.1,1.3c0.1,0.1,0.1,0.2-0.1,0.2c-2.1,1.8-4.2,3.6-6.2,5.4c-0.7,0.7-1.5,1.2-2.2,1.9
			c-0.1,0.1-0.2,0.1-0.4,0C566.9,186.6,566.6,186.2,566.2,185.8z"/>
	</g>
	<g>
		<path class="st0" d="M570.3,191.9c-0.1-0.1,0.1-0.1,0.1-0.2c0.9-0.4,1.8-0.8,2.7-1.2c1.2-0.5,2.3-1.1,3.5-1.6
			c1.4-0.6,2.7-1.2,4-1.9c0.1-0.1,0.2-0.1,0.3,0.1c0.2,0.4,0.4,0.9,0.6,1.3c0.1,0.1,0.1,0.2-0.1,0.2c-1.8,0.8-3.6,1.7-5.5,2.5
			c-1.6,0.7-3.2,1.5-4.9,2.2c-0.1,0.1-0.2,0.1-0.2-0.1C570.8,192.9,570.6,192.4,570.3,191.9z"/>
	</g>
	<g>
		<path class="st0" d="M523.2,215.2c0.1,0.1-0.1,0.1-0.1,0.2c-1,0.4-1.9,0.9-2.9,1.4c-1.2,0.6-2.4,1.1-3.6,1.7
			c-1.3,0.6-2.6,1.2-3.9,1.8c-0.1,0.1-0.1,0.1-0.2-0.1c-0.2-0.5-0.4-1-0.7-1.4c-0.1-0.1-0.1-0.2,0.1-0.2c2.7-1.2,5.4-2.4,8-3.7
			c0.7-0.4,1.5-0.7,2.3-1.1c0.1-0.1,0.2-0.1,0.2,0C522.7,214.2,523,214.8,523.2,215.2z"/>
	</g>
	<g>
		<path class="st0" d="M531.8,181.9c0.1-0.1,0.1-0.1,0.2-0.2c0.4-0.2,0.7-0.5,1.1-0.7c0.1-0.1,0.1-0.1,0.2-0.1
			c0.4,0.7,0.8,1.4,1.2,2c1,1.7,2,3.3,3,4.9c0.5,0.9,1.1,1.7,1.5,2.6c0.1,0.1,0.1,0.2-0.1,0.2c-0.4,0.2-0.9,0.5-1.2,0.8
			c-0.1,0.1-0.1,0.1-0.2-0.1c-1-1.6-1.9-3.2-2.9-4.8c-0.7-1.1-1.4-2.2-2.1-3.4c-0.2-0.4-0.5-0.8-0.7-1.2
			C532,182,531.9,182,531.8,181.9z"/>
	</g>
	<g>
		<path class="st0" d="M514.2,209c-1.6,0.2-3.2,0.4-4.8,0.7c-0.1,0-0.2,0-0.2-0.1c-0.1-0.4-0.1-0.9-0.2-1.3c0-0.1,0.1-0.2,0.1-0.2
			c1.3-0.2,2.6-0.4,3.9-0.5c1.5-0.2,3-0.4,4.5-0.6c1-0.1,2-0.2,3-0.4c0.1,0.6,0.2,1.1,0.2,1.6"/>
	</g>
	<g>
		<path class="st0" d="M572.8,199c1.4-0.2,2.9-0.4,4.4-0.6c1.3-0.2,2.7-0.4,4-0.5c1-0.1,2-0.2,3-0.4c0.2-0.1,0.2,0,0.2,0.2
			c0.1,0.4,0.1,0.8,0.2,1.2c0,0.1,0,0.2-0.1,0.2c-1,0.1-1.9,0.2-2.9,0.4c-1.6,0.2-3.2,0.4-4.9,0.7c-1.2,0.2-2.4,0.3-3.6,0.5
			c-0.1,0-0.1,0-0.1,0C572.9,200.1,572.8,199.5,572.8,199z"/>
	</g>
	<g>
		<path class="st0" d="M546.1,177.3c0.5-0.1,1.1-0.1,1.6,0c0,3.7,0,7.4,0,11.1c0,0.2,0,0.2-0.2,0.2c-0.4,0-0.7,0-1.1,0
			c-0.2,0-0.2-0.1-0.2-0.2c0-3.6,0-7.2,0-10.8C546.1,177.5,546.1,177.3,546.1,177.3z"/>
	</g>
	<g>
		<path class="st0" d="M547.4,229.9c-0.5,0-1.1,0-1.6,0c0-3.7,0-7.4,0-11.1c0-0.2,0.1-0.2,0.2-0.2c0.4,0,0.8,0,1.2,0
			c0.1,0,0.2,0.1,0.2,0.2c0,0.8,0,1.6,0,2.4C547.4,224.1,547.4,227,547.4,229.9z"/>
	</g>
	<g>
		<path class="st0" d="M553.6,178.2c0.2,0,0.4,0.1,0.6,0.1c0.4,0.1,0.7,0.2,1,0.3c-0.1,0.2-0.2,0.5-0.2,0.8c-0.5,1.6-1,3.3-1.4,4.9
			c-0.5,1.7-1,3.3-1.5,5c-0.1,0.1-0.1,0.2-0.2,0.1c-0.4-0.1-0.8-0.2-1.2-0.4c-0.1-0.1-0.1-0.1-0.1-0.2c0.4-1.2,0.7-2.4,1.1-3.7
			c0.5-1.7,1-3.4,1.5-5.1C553.1,179.5,553.4,178.8,553.6,178.2z"/>
	</g>
	<g>
		<path class="st0" d="M526.4,186.9c0-0.1,0-0.1,0.1-0.1c0.3-0.4,0.6-0.7,1-1.1c0.1-0.1,0.1-0.1,0.1-0.1c0.4,0.3,0.7,0.6,1,0.9
			c0.5,0.5,1.1,1,1.5,1.4c1,0.9,2,1.8,3,2.7c0.6,0.6,1.2,1.1,1.8,1.7c0.2,0.2,0.5,0.5,0.8,0.7c0.1,0.1,0.1,0.1,0,0.2
			c-0.3,0.3-0.6,0.7-0.8,1c-0.1,0.1-0.1,0.1-0.2,0.1c-0.3-0.3-0.6-0.6-1-0.8c-1.2-1.1-2.4-2.1-3.6-3.2c-1-0.9-1.9-1.7-2.9-2.6
			C527.1,187.5,526.8,187.2,526.4,186.9z"/>
	</g>
	<g>
		<path class="st0" d="M540.1,229.1c-0.5-0.1-1.1-0.2-1.5-0.4c0.4-1.1,0.7-2.3,1-3.4c0.4-1.4,0.8-2.7,1.2-4.1
			c0.3-1.1,0.6-2.1,0.9-3.2c0.1-0.2,0.1-0.2,0.2-0.2c0.4,0.1,0.8,0.2,1.2,0.4c0.1,0.1,0.2,0.1,0.1,0.2c-0.5,1.7-1,3.4-1.5,5.1
			c-0.5,1.7-1,3.5-1.5,5.2C540.1,228.8,540.1,228.9,540.1,229.1z"/>
	</g>
	<g>
		<path class="st0" d="M522.6,193.4c0.1-0.3,0.2-0.6,0.4-0.9c0.1-0.2,0.1-0.4,0.2-0.6c0.7,0.3,1.3,0.6,2,0.9c1.5,0.7,3,1.4,4.5,2.1
			c0.9,0.4,1.7,0.8,2.6,1.2c0.3,0.2,0.7,0.3,1,0.4c0.1,0.1,0.1,0.1,0.1,0.2c-0.2,0.4-0.4,0.8-0.5,1.2c-0.1,0.1-0.1,0.2-0.2,0.1
			c-0.7-0.4-1.4-0.7-2.1-1c-1.9-0.9-3.9-1.8-5.8-2.7C524,194.1,523.3,193.7,522.6,193.4z"/>
	</g>
	<g>
		<path class="st0" d="M571.1,213.7c-0.1,0.2-0.1,0.4-0.2,0.6c-0.1,0.3-0.2,0.6-0.4,0.9c-0.7-0.3-1.4-0.6-2.1-1
			c-1.6-0.7-3.2-1.5-4.8-2.2c-0.8-0.4-1.6-0.7-2.4-1.1c-0.2-0.1-0.6-0.2-0.8-0.4c-0.1-0.1-0.1-0.1-0.1-0.2c0.2-0.4,0.4-0.8,0.6-1.2
			c0.1-0.1,0.1-0.1,0.2-0.1c1.4,0.7,2.7,1.2,4.2,1.9C567.2,211.8,569.2,212.7,571.1,213.7C571.1,213.7,571.1,213.7,571.1,213.7z"/>
	</g>
	<g>
		<path class="st0" d="M538.7,178.5c0.1-0.1,0.2-0.1,0.2-0.1c0.4-0.1,0.7-0.2,1.1-0.4c0.1,0,0.1-0.1,0.1,0c0.5,1.6,1,3.2,1.4,4.8
			c0.4,1.2,0.7,2.4,1.1,3.6c0.2,0.7,0.4,1.5,0.7,2.2c0.1,0.1,0,0.2-0.1,0.2c-0.4,0.1-0.8,0.2-1.2,0.4c-0.2,0.1-0.2,0-0.2-0.2
			c-0.3-1-0.6-2-0.9-3c-0.4-1.2-0.7-2.5-1.1-3.7C539.5,181.1,539.1,179.8,538.7,178.5z"/>
	</g>
	<g>
		<path class="st0" d="M520.6,200.7c-0.1,0-0.1-0.1-0.1-0.1c0.1-0.4,0.1-0.9,0.2-1.4c0-0.1,0.1-0.1,0.1-0.1c0.9,0.1,1.7,0.2,2.6,0.4
			c1,0.1,2.1,0.2,3,0.4c1,0.2,2,0.2,3,0.4c0.7,0.1,1.4,0.2,2.2,0.2c0.2,0,0.2,0.1,0.2,0.2c-0.1,0.4-0.1,0.8-0.2,1.2
			c0,0.1-0.1,0.1-0.2,0.1c-0.9-0.1-1.8-0.2-2.7-0.4c-1-0.1-1.9-0.2-2.9-0.4c-0.9-0.1-1.8-0.2-2.7-0.4
			C522.4,200.9,521.6,200.8,520.6,200.7C520.8,200.8,520.8,200.8,520.6,200.7z"/>
	</g>
	<g>
		<path class="st0" d="M533.1,226.1c-0.4-0.3-0.9-0.6-1.4-0.9c0.3-0.4,0.5-0.8,0.8-1.2c0.7-1.1,1.4-2.1,2.1-3.2
			c1.1-1.7,2.1-3.3,3.2-5c0.1-0.1,0.1-0.1,0.2-0.1c0.4,0.2,0.7,0.5,1.1,0.7c0.1,0.1,0.1,0.1,0.1,0.2c-0.5,0.7-0.9,1.4-1.4,2.2
			c-1.5,2.4-3,4.7-4.5,7.1C533.2,226,533.2,226.1,533.1,226.1z"/>
	</g>
	<g>
		<path class="st0" d="M560.4,181.1c0.5,0.2,0.9,0.6,1.4,0.9c-0.5,0.7-0.9,1.4-1.4,2.2c-1.5,2.4-3,4.8-4.6,7.2
			c-0.1,0.1-0.1,0.1-0.2,0.1c-0.4-0.2-0.7-0.4-1.1-0.7c-0.1-0.1-0.2-0.1-0.1-0.2c0.8-1.2,1.5-2.4,2.3-3.6c1.2-1.9,2.4-3.8,3.6-5.7
			C560.4,181.1,560.4,181.1,560.4,181.1z"/>
	</g>
	<g>
		<path class="st0" d="M527.4,221.4c-0.4-0.4-0.7-0.8-1.1-1.2c1-0.9,2-1.7,3-2.6c1-0.9,2-1.7,3-2.6c0.8-0.7,1.7-1.4,2.5-2.1
			c0.1-0.1,0.2-0.1,0.2,0.1c0.2,0.3,0.5,0.7,0.8,1c0.1,0.1,0.1,0.2,0,0.2c-0.6,0.5-1.2,1.1-1.8,1.6c-0.6,0.5-1.2,1.1-1.9,1.6
			c-0.9,0.8-1.8,1.5-2.7,2.4C528.7,220.3,528,220.8,527.4,221.4z"/>
	</g>
	<g>
		<path class="st0" d="M572.8,199c0.1,0.5,0.1,1.1,0.2,1.5c-0.4,0.1-0.7,0.1-1.1,0.2c-0.7,0.1-1.5,0.2-2.2,0.3
			c-0.8,0.1-1.7,0.2-2.5,0.4c-0.8,0.1-1.7,0.2-2.5,0.4c-0.7,0.1-1.4,0.2-2.2,0.3c-0.2,0.1-0.4,0.1-0.7,0.1c-0.1,0.1-0.2-0.1-0.2-0.1
			c-0.1-0.3-0.1-0.6-0.1-0.9c0-0.2-0.1-0.4,0-0.5c0.1-0.1,0.3-0.1,0.4-0.1c1.4-0.2,2.8-0.4,4.2-0.6c1.4-0.2,2.7-0.4,4-0.6
			C571.2,199.2,571.9,199.2,572.8,199z"/>
	</g>
	<g>
		<path class="st0" d="M554.9,228.8c-0.5,0.2-1,0.4-1.5,0.5c-0.2-1-0.6-2.2-0.9-3.2c-0.4-1.4-0.8-2.9-1.2-4.3
			c-0.3-1.1-0.6-2.3-0.9-3.4c-0.1-0.1-0.1-0.2,0.1-0.2c0.4-0.1,0.8-0.2,1.2-0.4c0.1-0.1,0.2,0,0.2,0.1c0.4,1.5,0.8,3,1.2,4.5
			c0.6,2,1.1,4,1.7,6.1C554.9,228.6,554.9,228.8,554.9,228.8z"/>
	</g>
	<g>
		<path class="st0" d="M520.8,208.1c-0.1-0.5-0.1-1.1-0.2-1.5c1.2-0.2,2.4-0.4,3.6-0.5c1.1-0.1,2.2-0.3,3.3-0.5
			c1.2-0.2,2.4-0.3,3.7-0.5c0.1,0,0.3-0.1,0.4-0.1c0.1,0,0.2,0,0.2,0.1c0.1,0.4,0.1,0.9,0.2,1.2c0,0.1-0.1,0.2-0.1,0.2
			c-0.4,0.1-0.9,0.1-1.2,0.2c-0.7,0.1-1.4,0.2-2.2,0.3c-0.7,0.1-1.5,0.2-2.2,0.3c-0.7,0.1-1.4,0.2-2.1,0.3"/>
	</g>
	<g>
		<path class="st0" d="M566.3,221.4c-1.4-1.2-2.9-2.5-4.3-3.7c-1.1-1-2.2-1.9-3.4-2.9c-0.2-0.2-0.5-0.5-0.8-0.7
			c-0.1-0.1-0.1-0.1,0-0.2c0.2-0.3,0.5-0.6,0.8-0.9c0.1-0.1,0.2-0.1,0.3,0c0.4,0.4,0.9,0.8,1.4,1.2c0.9,0.7,1.7,1.5,2.6,2.3
			c0.7,0.6,1.4,1.2,2,1.7c0.8,0.8,1.5,1.4,2.3,2.1c0,0.1-0.1,0.2-0.2,0.2"/>
	</g>
	<g>
		<path class="st0" d="M572.9,206.4c0.1,0.1,0.1,0.1,0.1,0.2c-0.1,0.4-0.1,0.9-0.2,1.3c0,0.1,0,0.1-0.1,0.1
			c-0.4-0.1-0.9-0.1-1.4-0.2c-0.8-0.1-1.7-0.2-2.6-0.4c-0.7-0.1-1.4-0.2-2.2-0.3c-0.7-0.1-1.4-0.2-2.2-0.3c-0.7-0.1-1.2-0.2-1.9-0.2
			c-0.2-0.1-0.6-0.1-0.8-0.1c-0.1,0-0.1-0.1-0.1-0.2c0.1-0.4,0.1-0.9,0.2-1.3c0-0.1,0.1-0.1,0.2-0.1c0.4,0.1,0.7,0.1,1.1,0.1
			c0.8,0.1,1.6,0.2,2.4,0.4c0.7,0.1,1.5,0.2,2.3,0.3c0.8,0.1,1.7,0.2,2.5,0.4c0.8,0.1,1.6,0.2,2.4,0.4
			C572.7,206.4,572.8,206.4,572.9,206.4z"/>
	</g>
	<g>
		<path class="st0" d="M566.2,185.8c0.4,0.4,0.7,0.8,1.1,1.2c-0.4,0.3-0.7,0.6-1.1,0.9c-0.9,0.8-1.8,1.5-2.8,2.4
			c-0.8,0.7-1.7,1.4-2.4,2.1c-0.7,0.6-1.4,1.2-2.1,1.8c-0.1,0.1-0.2,0.1-0.4-0.1c-0.2-0.3-0.5-0.6-0.8-0.9c-0.1-0.1-0.1-0.2,0-0.2
			c0.5-0.4,1-0.9,1.5-1.3c0.6-0.5,1.2-1.1,1.8-1.5c0.9-0.8,1.9-1.6,2.8-2.4C564.7,187.1,565.5,186.4,566.2,185.8z"/>
	</g>
	<g>
		<path class="st0" d="M561.7,225.3c-0.1,0.2-0.4,0.2-0.6,0.4c-0.2,0.1-0.4,0.2-0.6,0.4c-0.1,0.1-0.1,0.1-0.2,0.1
			c-0.2-0.5-0.6-1-0.9-1.5c-1.1-1.7-2.1-3.5-3.2-5.2c-0.6-0.9-1.1-1.8-1.7-2.7c-0.1-0.1-0.1-0.2,0.1-0.2c0.4-0.2,0.7-0.4,1.1-0.7
			c0.1-0.1,0.2-0.1,0.2,0.1c1.5,2.4,3,4.9,4.5,7.4C560.8,223.9,561.2,224.6,561.7,225.3z"/>
	</g>
	<g>
		<path class="st0" d="M523.2,215.2c-0.2-0.5-0.5-1-0.7-1.4c0.7-0.4,1.4-0.7,2.2-1c2-0.9,4-1.8,6-2.7c0.6-0.3,1.2-0.6,1.9-0.9
			c0.1-0.1,0.2-0.1,0.2,0.1c0.2,0.4,0.4,0.8,0.5,1.2c0.1,0.1,0.1,0.1-0.1,0.2c-2.1,0.9-4,1.9-6.1,2.8c-1.1,0.5-2.3,1.1-3.4,1.5
			C523.6,215.1,523.4,215.2,523.2,215.2z"/>
	</g>
	<g>
		<path class="st0" d="M570.3,191.9c0.2,0.5,0.5,1,0.7,1.4c-0.4,0.2-0.7,0.4-1.1,0.5c-1,0.5-2,0.9-3,1.4c-1.5,0.7-3,1.4-4.6,2.1
			c-0.5,0.2-1,0.4-1.5,0.7c-0.1,0.1-0.2,0.1-0.2-0.1c-0.2-0.4-0.4-0.8-0.6-1.2c-0.1-0.1,0-0.1,0.1-0.2c1.6-0.7,3.2-1.5,4.9-2.2
			c1.2-0.5,2.3-1.1,3.5-1.6c0.6-0.2,1.1-0.5,1.7-0.7C570.3,192,570.3,192,570.3,191.9z"/>
	</g>
</g>
<g>
	<g>
		<g>
			<path class="st0" d="M599.3,214.7c0-8.1,2.2-14.5,6.5-19c4.3-4.6,9.9-6.8,16.8-6.8c4.5,0,8.6,1.1,12.2,3.2c3.6,2.1,6.4,5.2,8.3,9
				c1.9,3.9,2.9,8.2,2.9,13.1c0,4.9-1,9.3-3,13.3c-2,3.9-4.8,6.8-8.5,8.9c-3.6,2-7.6,3-11.8,3c-4.6,0-8.7-1.1-12.3-3.3
				c-3.6-2.2-6.4-5.2-8.2-9.1C600.2,223,599.3,219,599.3,214.7z M605.9,214.8c0,5.9,1.6,10.5,4.8,13.9c3.2,3.4,7.1,5.1,11.9,5.1
				c4.9,0,8.9-1.7,12-5.1c3.2-3.4,4.7-8.3,4.7-14.5c0-4-0.7-7.4-2-10.4s-3.3-5.2-5.9-6.9c-2.6-1.6-5.5-2.4-8.7-2.4
				c-4.6,0-8.5,1.5-11.8,4.7C607.6,202.2,605.9,207.4,605.9,214.8z"/>
		</g>
		<g>
			<path class="st0" d="M622.7,241.4c-4.9,0-9.4-1.2-13.4-3.6s-7-5.8-9-10c-2-4-3-8.3-3-13.1c0-8.6,2.4-15.5,7.1-20.4
				c4.7-4.9,10.9-7.5,18.3-7.5c4.9,0,9.3,1.2,13.3,3.5c3.9,2.3,7,5.6,9.1,9.8c2,4.2,3.1,8.9,3.1,14s-1.1,9.9-3.2,14.2
				c-2.3,4.3-5.3,7.6-9.3,9.8C631.6,240.3,627.3,241.4,622.7,241.4z M622.7,191c-6.4,0-11.4,2-15.4,6.2c-4,4.1-6,10.1-6,17.6
				c0,4.1,0.8,7.8,2.6,11.2c1.7,3.5,4.2,6.3,7.4,8.3c3.3,2,7.1,3,11.2,3c3.9,0,7.6-1,10.8-2.8c3.3-1.8,5.8-4.5,7.7-8
				c1.8-3.6,2.7-7.8,2.7-12.3c0-4.6-0.9-8.6-2.6-12.2c-1.7-3.5-4.3-6.2-7.4-8.1C630.5,191.9,626.9,191,622.7,191z M622.6,235.8
				c-5.4,0-9.9-1.9-13.5-5.7c-3.5-3.7-5.3-8.9-5.3-15.3c0-7.9,1.9-13.7,5.7-17.3c3.6-3.5,8.1-5.3,13.2-5.3c3.6,0,6.9,1,9.8,2.7
				c2.9,1.9,5.2,4.5,6.7,7.8c1.5,3.2,2.2,6.9,2.2,11.3c0,6.8-1.8,12.2-5.2,16C632.6,233.8,628,235.8,622.6,235.8z M622.7,196.4
				c-4.1,0-7.4,1.4-10.4,4.1c-2.9,2.8-4.3,7.6-4.3,14.3c0,5.3,1.4,9.5,4.2,12.4c2.7,3,6.1,4.4,10.4,4.4s7.7-1.4,10.5-4.5
				c2.7-3,4.2-7.4,4.2-13.1c0-3.7-0.6-6.8-1.8-9.5c-1.2-2.6-2.9-4.5-5.1-6C628.1,197.1,625.5,196.4,622.7,196.4z"/>
		</g>
	</g>
	<g>
		<g>
			<path class="st0" d="M693.7,221.3l6.4,1.6c-1.4,5.3-3.8,9.3-7.3,12.1s-7.8,4.2-12.9,4.2c-5.2,0-9.5-1.1-12.8-3.2
				c-3.3-2.1-5.8-5.2-7.5-9.3c-1.7-4-2.6-8.4-2.6-13.1c0-5.1,1-9.5,2.9-13.3c2-3.8,4.7-6.7,8.3-8.6s7.5-2.9,11.8-2.9
				c4.9,0,9,1.2,12.3,3.7c3.3,2.5,5.7,6,7,10.5l-6.4,1.5c-1.1-3.6-2.8-6.1-4.9-7.7c-2.1-1.6-4.9-2.4-8.1-2.4c-3.7,0-6.9,0.9-9.4,2.7
				c-2.5,1.8-4.3,4.2-5.3,7.3c-1,3-1.5,6.1-1.5,9.3c0,4.2,0.6,7.8,1.8,10.9c1.2,3.1,3.1,5.4,5.7,7c2.6,1.5,5.3,2.3,8.3,2.3
				c3.6,0,6.7-1.1,9.2-3.2C691,228.5,692.8,225.4,693.7,221.3z"/>
		</g>
		<g>
			<path class="st0" d="M679.9,241.3c-5.7,0-10.4-1.2-13.9-3.6c-3.6-2.4-6.4-5.8-8.3-10.2c-1.8-4.2-2.7-8.9-2.7-13.9
				c0-5.5,1.1-10.2,3.2-14.2c2.1-4.2,5.2-7.3,9.1-9.5c3.8-2.1,8.2-3.2,12.9-3.2c5.3,0,9.9,1.4,13.6,4.2c3.7,2.8,6.3,6.7,7.7,11.5
				l0.6,2.1l-10.4,2.4l-0.6-1.8c-1-3.1-2.4-5.4-4.2-6.7c-1.8-1.4-4.1-2-6.8-2c-3.3,0-6.1,0.8-8.2,2.3c-2.1,1.5-3.7,3.6-4.5,6.2
				c-1,2.9-1.4,5.8-1.4,8.7c0,3.9,0.5,7.3,1.7,10.1c1,2.6,2.6,4.6,4.8,6c2.3,1.4,4.6,2,7.2,2c3.1,0,5.7-0.9,7.9-2.7
				c2.1-1.8,3.6-4.6,4.4-8.2l0.5-2.1l10.5,2.6l-0.5,2c-1.5,5.7-4.2,10.2-8,13.3C690.2,239.8,685.4,241.3,679.9,241.3z M680,190.9
				c-4,0-7.6,0.9-10.8,2.7c-3.2,1.8-5.7,4.3-7.4,7.7c-1.8,3.4-2.7,7.6-2.7,12.3c0,4.5,0.8,8.5,2.4,12.3c1.5,3.6,3.8,6.4,6.7,8.3
				s6.8,2.9,11.7,2.9c4.7,0,8.5-1.2,11.6-3.7c2.7-2.1,4.7-5.2,6-9l-2.3-0.6c-1.1,3.5-2.9,6.3-5.2,8.4c-2.9,2.4-6.4,3.6-10.5,3.6
				c-3.3,0-6.5-0.9-9.3-2.6c-3-1.8-5.2-4.5-6.5-8c-1.2-3.3-1.9-7.3-1.9-11.7c0-3.4,0.5-6.7,1.7-10c1.1-3.5,3.2-6.2,6.1-8.3
				c2.9-2,6.4-3.1,10.6-3.1c3.7,0,6.8,1,9.3,2.9c2.1,1.6,3.8,3.9,5,7l2.3-0.5c-1.2-3-3-5.5-5.5-7.3C688.1,192,684.4,190.9,680,190.9
				z"/>
		</g>
	</g>
	<g>
		<g>
			<path class="st0" d="M707.2,238.5l18.7-48.8h7l19.9,48.8h-7.4l-5.7-14.8h-20.4l-5.4,14.8H707.2z M721.3,218.4h16.5l-5.1-13.5
				c-1.5-4.1-2.7-7.5-3.5-10.1c-0.6,3.2-1.5,6.2-2.6,9.3L721.3,218.4z"/>
		</g>
		<g>
			<path class="st0" d="M729.4,187.6h5l21.7,53h-11.9l-5.7-14.8h-17.5l-5.4,14.8h-11.2l20.2-53h4 M746.9,236.4h2.9l-18.2-44.6h-1
				l0.7,2.4c0.8,2.9,2,6.3,3.4,10l6.2,16.3h-22.6l6.4-17.1c1.1-3.2,2-6.1,2.5-9l0.5-2.7h-0.4l-17.1,44.6h2.3l5.4-14.8h23.3
				L746.9,236.4z M724.4,216.3h10.5l-4-10.7c-0.4-1.2-0.8-2.3-1.2-3.5c-0.3,0.9-0.6,1.7-0.9,2.6L724.4,216.3z"/>
		</g>
	</g>
</g>
<g>
	<path class="st1" d="M327.3,257c1.3-0.2,3-0.4,5.3-0.4c2.7,0,4.7,0.7,6,1.8c1.2,1,1.8,2.6,1.8,4.5c0,1.9-0.6,3.5-1.7,4.5
		c-1.4,1.5-3.8,2.3-6.5,2.3c-0.8,0-1.5-0.1-2.2-0.2v8.5h-2.7V257z M330,267.3c0.6,0.2,1.4,0.2,2.3,0.2c3.3,0,5.4-1.6,5.4-4.5
		c0-2.8-2-4.2-5-4.2c-1.2,0-2.1,0.1-2.6,0.2L330,267.3L330,267.3z"/>
	<path class="st1" d="M352,278l-0.2-1.9h-0.1c-0.8,1.2-2.5,2.3-4.6,2.3c-3.1,0-4.6-2.2-4.6-4.4c0-3.7,3.3-5.7,9.2-5.7V268
		c0-1.2-0.4-3.5-3.5-3.5c-1.4,0-2.9,0.4-4,1.1l-0.7-1.8c1.2-0.8,3.1-1.4,5-1.4c4.6,0,5.8,3.2,5.8,6.2v5.7c0,1.3,0.1,2.6,0.2,3.6H352
		L352,278z M351.6,270.2c-3-0.1-6.5,0.5-6.5,3.5c0,1.8,1.2,2.7,2.6,2.7c2,0,3.3-1.2,3.7-2.6c0.1-0.3,0.2-0.6,0.2-0.9V270.2z"/>
	<path class="st1" d="M359.2,267.6c0-1.8-0.1-3.3-0.1-4.8h2.4l0.1,3h0.1c0.7-2,2.4-3.3,4.2-3.3c0.3,0,0.5,0.1,0.8,0.1v2.6
		c-0.3-0.1-0.6-0.1-1-0.1c-2,0-3.3,1.5-3.7,3.6c-0.1,0.4-0.1,0.8-0.1,1.3v8.1h-2.7V267.6z"/>
	<path class="st1" d="M374.1,258.4v4.4h4v2.1h-4v8.2c0,1.9,0.5,3,2.1,3c0.7,0,1.2-0.1,1.6-0.2l0.1,2.1c-0.5,0.2-1.4,0.4-2.4,0.4
		c-1.3,0-2.3-0.4-3-1.2c-0.8-0.8-1.1-2.2-1.1-4v-8.3H369v-2.1h2.4v-3.6L374.1,258.4z"/>
	<path class="st1" d="M381.6,266.9c0-1.5-0.1-2.9-0.1-4.1h2.4l0.2,2.5h0.1c0.8-1.4,2.5-2.9,5.1-2.9c2.1,0,5.4,1.2,5.4,6.5v9.1h-2.8
		v-8.8c0-2.4-0.9-4.5-3.5-4.5c-1.8,0-3.3,1.3-3.7,2.9c-0.1,0.4-0.2,0.8-0.2,1.3v9.2h-2.8L381.6,266.9L381.6,266.9z"/>
	<path class="st1" d="M401.1,270.9c0.1,3.7,2.4,5.3,5.2,5.3c2,0,3.2-0.4,4.2-0.8l0.5,2c-1,0.4-2.7,1-5.1,1c-4.7,0-7.5-3.1-7.5-7.7
		c0-4.6,2.7-8.2,7.1-8.2c5,0,6.3,4.4,6.3,7.2c0,0.6-0.1,1-0.1,1.3L401.1,270.9L401.1,270.9L401.1,270.9z M409.2,268.9
		c0.1-1.8-0.7-4.5-3.9-4.5c-2.8,0-4,2.6-4.3,4.5H409.2z"/>
	<path class="st1" d="M415.8,267.6c0-1.8-0.1-3.3-0.1-4.8h2.4l0.1,3h0.1c0.7-2,2.4-3.3,4.2-3.3c0.3,0,0.5,0.1,0.8,0.1v2.6
		c-0.3-0.1-0.6-0.1-1-0.1c-2,0-3.3,1.5-3.7,3.6c-0.1,0.4-0.1,0.8-0.1,1.3v8.1h-2.7V267.6z"/>
</g>
<g>
	<path class="st1" d="M614.7,277.4c-1,0.5-3,1-5.6,1c-6,0-10.5-3.8-10.5-10.8c0-6.7,4.5-11.2,11.1-11.2c2.7,0,4.3,0.6,5.1,1
		l-0.7,2.3c-1-0.5-2.5-0.9-4.3-0.9c-5,0-8.3,3.2-8.3,8.7c0,5.2,3,8.6,8.2,8.6c1.7,0,3.4-0.4,4.5-0.9L614.7,277.4z"/>
	<path class="st1" d="M631.9,270.3c0,5.7-3.9,8.1-7.6,8.1c-4.1,0-7.3-3-7.3-7.9c0-5.1,3.3-8.1,7.6-8.1
		C629,262.4,631.9,265.6,631.9,270.3z M619.9,270.5c0,3.3,1.9,5.9,4.6,5.9c2.7,0,4.6-2.5,4.6-6c0-2.6-1.3-5.9-4.6-5.9
		C621.2,264.5,619.9,267.6,619.9,270.5z"/>
	<path class="st1" d="M635.9,266.9c0-1.5-0.1-2.9-0.1-4.1h2.4l0.2,2.5h0.1c0.8-1.4,2.5-2.9,5.1-2.9c2.1,0,5.4,1.2,5.4,6.5v9.1h-2.8
		v-8.8c0-2.4-0.9-4.5-3.5-4.5c-1.8,0-3.3,1.3-3.7,2.9c-0.1,0.4-0.2,0.8-0.2,1.3v9.2h-2.8V266.9z"/>
	<path class="st1" d="M657.1,258.4v4.4h4v2.1h-4v8.2c0,1.9,0.5,3,2.1,3c0.7,0,1.2-0.1,1.6-0.2l0.1,2.1c-0.5,0.2-1.4,0.4-2.4,0.4
		c-1.3,0-2.3-0.4-3-1.2c-0.8-0.8-1.1-2.2-1.1-4v-8.3H652v-2.1h2.4v-3.6L657.1,258.4z"/>
	<path class="st1" d="M664.6,267.6c0-1.8-0.1-3.3-0.1-4.8h2.4l0.1,3h0.1c0.7-2,2.4-3.3,4.2-3.3c0.3,0,0.5,0.1,0.8,0.1v2.6
		c-0.3-0.1-0.6-0.1-1-0.1c-2,0-3.3,1.5-3.7,3.6c-0.1,0.4-0.1,0.8-0.1,1.3v8.1h-2.7V267.6z"/>
	<path class="st1" d="M678.5,258.5c0.1,1-0.7,1.7-1.8,1.7c-1,0-1.7-0.8-1.7-1.7s0.7-1.7,1.7-1.7
		C677.9,256.8,678.5,257.5,678.5,258.5z M675.4,278v-15.2h2.8V278H675.4z"/>
	<path class="st1" d="M683.2,278c0.1-1,0.1-2.6,0.1-3.9v-18.4h2.7v9.6h0.1c1-1.7,2.7-2.8,5.2-2.8c3.8,0,6.5,3.2,6.4,7.8
		c0,5.5-3.5,8.2-6.8,8.2c-2.2,0-4-0.8-5.1-2.9h-0.1l-0.1,2.5H683.2z M686,271.9c0,0.4,0.1,0.7,0.1,1c0.5,1.9,2.1,3.3,4.2,3.3
		c2.9,0,4.6-2.4,4.6-5.9c0-3-1.6-5.7-4.5-5.7c-1.9,0-3.6,1.3-4.2,3.4c-0.1,0.3-0.2,0.7-0.2,1.1L686,271.9L686,271.9z"/>
	<path class="st1" d="M714.4,273.9c0,1.5,0.1,3,0.1,4.2h-2.4l-0.2-2.5h-0.1c-0.7,1.2-2.3,2.9-5.1,2.9c-2.4,0-5.2-1.3-5.2-6.7v-8.9
		h2.8v8.5c0,2.9,0.9,4.9,3.4,4.9c1.8,0,3.2-1.3,3.6-2.5c0.2-0.4,0.2-0.9,0.2-1.4v-9.3h2.8L714.4,273.9L714.4,273.9z"/>
	<path class="st1" d="M722.8,258.4v4.4h4v2.1h-4v8.2c0,1.9,0.5,3,2.1,3c0.7,0,1.2-0.1,1.6-0.2l0.1,2.1c-0.5,0.2-1.4,0.4-2.4,0.4
		c-1.3,0-2.3-0.4-3-1.2c-0.8-0.8-1.1-2.2-1.1-4v-8.3h-2.4v-2.1h2.4v-3.6L722.8,258.4z"/>
	<path class="st1" d="M744,270.3c0,5.7-3.9,8.1-7.6,8.1c-4.1,0-7.3-3-7.3-7.9c0-5.1,3.3-8.1,7.6-8.1C741,262.4,744,265.6,744,270.3z
		 M731.9,270.5c0,3.3,1.9,5.9,4.6,5.9c2.7,0,4.6-2.5,4.6-6c0-2.6-1.3-5.9-4.6-5.9C733.3,264.5,731.9,267.6,731.9,270.5z"/>
	<path class="st1" d="M747.9,267.6c0-1.8-0.1-3.3-0.1-4.8h2.4l0.1,3h0.1c0.7-2,2.4-3.3,4.2-3.3c0.3,0,0.5,0.1,0.8,0.1v2.6
		c-0.3-0.1-0.6-0.1-1-0.1c-2,0-3.3,1.5-3.7,3.6c-0.1,0.4-0.1,0.8-0.1,1.3v8.1h-2.7V267.6L747.9,267.6z"/>
	<path class="st1" d="M646.9,312.6c1.2,0.8,3,1.4,4.9,1.4c2.8,0,4.5-1.5,4.5-3.6c0-2-1.1-3.1-4-4.2c-3.5-1.2-5.6-3-5.6-6
		c0-3.3,2.7-5.8,6.9-5.8c2.2,0,3.7,0.5,4.7,1l-0.8,2.3c-0.7-0.4-2.1-1-4-1c-2.9,0-4,1.7-4,3.2c0,2,1.3,3,4.2,4.1
		c3.6,1.4,5.4,3.1,5.4,6.2c0,3.3-2.4,6.1-7.4,6.1c-2,0-4.3-0.6-5.4-1.4L646.9,312.6z"/>
	<path class="st1" d="M663.2,305.6c0-2-0.1-3.5-0.1-5h2.5l0.1,2.6h0.1c1.1-1.8,2.9-3,5.4-3c3.7,0,6.5,3.1,6.5,7.7
		c0,5.5-3.3,8.2-7,8.2c-2,0-3.8-0.9-4.7-2.4h-0.1v8.3h-2.7V305.6z M665.9,309.7c0,0.4,0.1,0.8,0.1,1.1c0.5,1.9,2.2,3.3,4.2,3.3
		c2.9,0,4.6-2.4,4.6-5.9c0-3-1.6-5.7-4.5-5.7c-1.9,0-3.6,1.4-4.2,3.5c-0.1,0.4-0.2,0.8-0.2,1.1L665.9,309.7L665.9,309.7z"/>
	<path class="st1" d="M695.4,308.1c0,5.7-3.9,8.1-7.6,8.1c-4.1,0-7.3-3-7.3-7.9c0-5.1,3.3-8.1,7.6-8.1
		C692.4,300.3,695.4,303.4,695.4,308.1z M683.2,308.3c0,3.3,1.9,5.9,4.6,5.9c2.7,0,4.6-2.5,4.6-6c0-2.6-1.3-5.9-4.6-5.9
		C684.7,302.4,683.2,305.4,683.2,308.3z"/>
	<path class="st1" d="M699.3,304.8c0-1.5-0.1-2.9-0.1-4.1h2.4l0.2,2.5h0.1c0.8-1.4,2.5-2.9,5.1-2.9c2.1,0,5.4,1.2,5.4,6.5v9.1h-2.8
		v-8.8c0-2.4-0.9-4.5-3.5-4.5c-1.8,0-3.3,1.3-3.7,2.9c-0.1,0.4-0.2,0.8-0.2,1.3v9.2h-2.8L699.3,304.8L699.3,304.8z"/>
	<path class="st1" d="M716.9,313.1c0.8,0.5,2.3,1.1,3.6,1.1c2,0,3-1,3-2.3c0-1.3-0.8-2-2.9-2.8c-2.7-1-4-2.5-4-4.3
		c0-2.4,2-4.5,5.2-4.5c1.5,0,2.9,0.4,3.7,1l-0.7,2c-0.6-0.4-1.7-0.9-3.1-0.9c-1.7,0-2.6,1-2.6,2.1c0,1.2,0.9,1.8,2.9,2.6
		c2.7,1,4,2.3,4,4.6c0,2.7-2.1,4.6-5.7,4.6c-1.7,0-3.2-0.4-4.3-1L716.9,313.1z"/>
	<path class="st1" d="M744,308.1c0,5.7-3.9,8.1-7.6,8.1c-4.1,0-7.3-3-7.3-7.9c0-5.1,3.3-8.1,7.6-8.1C741,300.3,744,303.4,744,308.1z
		 M731.9,308.3c0,3.3,1.9,5.9,4.6,5.9c2.7,0,4.6-2.5,4.6-6c0-2.6-1.3-5.9-4.6-5.9C733.3,302.4,731.9,305.4,731.9,308.3z"/>
	<path class="st1" d="M747.9,305.4c0-1.8-0.1-3.3-0.1-4.8h2.4l0.1,3h0.1c0.7-2,2.4-3.3,4.2-3.3c0.3,0,0.5,0.1,0.8,0.1v2.6
		c-0.3-0.1-0.6-0.1-1-0.1c-2,0-3.3,1.5-3.7,3.6c-0.1,0.4-0.1,0.8-0.1,1.3v8.2h-2.7V305.4L747.9,305.4z"/>
</g>
</svg>
