<?xml version="1.0" encoding="utf-8"?>
<!-- Generator: Adobe Illustrator 24.1.2, SVG Export Plug-In . SVG Version: 6.00 Build 0)  -->
<svg version="1.1" id="Server" xmlns="http://www.w3.org/2000/svg" xmlns:xlink="http://www.w3.org/1999/xlink" x="0px" y="0px"
	 viewBox="0 0 24 24" style="enable-background:new 0 0 24 24;" xml:space="preserve">
<style type="text/css">
	.st0{fill:#039BE5;}
	.st1{opacity:0.1;fill:#FFFFFF;enable-background:new    ;}
	.st2{opacity:5.000000e-02;enable-background:new    ;}
	.st3{fill:#303C42;}
	.st4{opacity:0.1;enable-background:new    ;}
	.st5{opacity:0.2;enable-background:new    ;}
	.st6{fill:#69B342;}
	.st7{fill:#C6CDD1;}
	.st8{fill:url(#SVGID_1_);}
	.st9{fill:url(#SVGID_2_);}
	.st10{fill:url(#SVGID_3_);}
</style>
<circle class="st0" cx="11.1" cy="11.1" r="9.2"/>
<path class="st1" d="M11.1,2c-3.8,0-7,2.3-8.4,5.5h16.8C18.1,4.2,14.9,2,11.1,2z"/>
<path class="st2" d="M2.7,14.8c1.4,3.2,4.6,5.5,8.4,5.5s7-2.3,8.4-5.5H2.7z"/>
<path class="st1" d="M7.5,11.1C7.5,6.1,8.6,2,11.1,2C6.1,2,2,6.1,2,11.1s4.1,9.2,9.2,9.2C8.6,20.3,7.5,16.2,7.5,11.1z"/>
<path class="st2" d="M11.1,2c2.5,0,3.7,4.1,3.7,9.2s-1.1,9.2-3.7,9.2c5.1,0,9.2-4.1,9.2-9.2S16.2,2,11.1,2z"/>
<path class="st3" d="M6.5,16.2h14.7V18H6.5V16.2z"/>
<path class="st4" d="M6.5,16.2h14.7V18H6.5V16.2z"/>
<path class="st3" d="M21.2,16.6H6.5c-0.5,0-0.9-0.4-0.9-0.9V13c0-0.5,0.4-0.9,0.9-0.9h14.7c0.5,0,0.9,0.4,0.9,0.9v2.7
	C22.1,16.2,21.7,16.6,21.2,16.6z"/>
<path class="st1" d="M21.2,12.1H6.5c-0.5,0-0.9,0.4-0.9,0.9v0.2c0-0.5,0.4-0.9,0.9-0.9h14.7c0.5,0,0.9,0.4,0.9,0.9V13
	C22.1,12.5,21.7,12.1,21.2,12.1z"/>
<path class="st5" d="M21.2,16.4H6.5c-0.5,0-0.9-0.4-0.9-0.9v0.2c0,0.5,0.4,0.9,0.9,0.9h14.7c0.5,0,0.9-0.4,0.9-0.9v-0.2
	C22.1,16,21.7,16.4,21.2,16.4z"/>
<path class="st3" d="M21.2,22.1H6.5c-0.5,0-0.9-0.4-0.9-0.9v-2.7c0-0.5,0.4-0.9,0.9-0.9h14.7c0.5,0,0.9,0.4,0.9,0.9v2.7
	C22.1,21.7,21.7,22.1,21.2,22.1z"/>
<circle class="st6" cx="19.8" cy="19.8" r="0.5"/>
<circle class="st6" cx="18" cy="19.8" r="0.5"/>
<circle class="st6" cx="16.2" cy="19.8" r="0.5"/>
<circle class="st7" cx="7.9" cy="19.8" r="0.9"/>
<linearGradient id="SVGID_1_" gradientUnits="userSpaceOnUse" x1="7.336" y1="6.7378" x2="8.3616" y2="5.7121" gradientTransform="matrix(1 0 0 -1 0 26)">
	<stop  offset="0" style="stop-color:#000000;stop-opacity:0.1"/>
	<stop  offset="1" style="stop-color:#000000;stop-opacity:0"/>
</linearGradient>
<circle class="st8" cx="7.9" cy="19.8" r="0.9"/>
<circle class="st6" cx="19.8" cy="14.3" r="0.5"/>
<circle class="st6" cx="18" cy="14.3" r="0.5"/>
<circle class="st6" cx="16.2" cy="14.3" r="0.5"/>
<path class="st1" d="M21.2,17.6H6.5c-0.5,0-0.9,0.4-0.9,0.9v0.2c0-0.5,0.4-0.9,0.9-0.9h14.7c0.5,0,0.9,0.4,0.9,0.9v-0.2
	C22.1,18,21.7,17.6,21.2,17.6z"/>
<path class="st5" d="M21.2,21.9H6.5c-0.5,0-0.9-0.4-0.9-0.9v0.2c0,0.5,0.4,0.9,0.9,0.9h14.7c0.5,0,0.9-0.4,0.9-0.9V21
	C22.1,21.5,21.7,21.9,21.2,21.9z"/>
<circle class="st7" cx="7.9" cy="14.3" r="0.9"/>
<linearGradient id="SVGID_2_" gradientUnits="userSpaceOnUse" x1="7.336" y1="12.2373" x2="8.3616" y2="11.2116" gradientTransform="matrix(1 0 0 -1 0 26)">
	<stop  offset="0" style="stop-color:#000000;stop-opacity:0.1"/>
	<stop  offset="1" style="stop-color:#000000;stop-opacity:0"/>
</linearGradient>
<circle class="st9" cx="7.9" cy="14.3" r="0.9"/>
<linearGradient id="SVGID_3_" gradientUnits="userSpaceOnUse" x1="2.2175" y1="17.461" x2="23.5011" y2="7.5369" gradientTransform="matrix(1 0 0 -1 0 26)">
	<stop  offset="0" style="stop-color:#FFFFFF;stop-opacity:0.2"/>
	<stop  offset="1" style="stop-color:#FFFFFF;stop-opacity:0"/>
</linearGradient>
<path class="st10" d="M22.1,15.7V13c0-0.5-0.4-0.9-0.9-0.9h-1c0-0.3,0-0.6,0-0.9c0-5.1-4.1-9.2-9.2-9.2S2,6.1,2,11.1
	c0,3,1.4,5.6,3.7,7.3l0,0v2.7c0,0.5,0.4,0.9,0.9,0.9h14.7c0.5,0,0.9-0.4,0.9-0.9v-2.7c0-0.5-0.4-0.9-0.9-0.9v-0.9
	C21.7,16.6,22.1,16.2,22.1,15.7z"/>
</svg>
