<?xml version="1.0" encoding="utf-8"?>
<!-- Generator: Adobe Illustrator 24.1.2, SVG Export Plug-In . SVG Version: 6.00 Build 0)  -->
<svg version="1.1" id="Server" xmlns="http://www.w3.org/2000/svg" xmlns:xlink="http://www.w3.org/1999/xlink" x="0px" y="0px"
	 viewBox="0 0 24 24" style="enable-background:new 0 0 24 24;" xml:space="preserve">
<style type="text/css">
	.st0{fill:none;}
	.st1{fill:#173E51;}
	.st2{fill:#51BCF0;}
	.st3{fill:#29A1DC;}
	.st4{fill:#1381B7;}
	.st5{fill:#D1D6D8;}
	.st6{fill:#C0C2C3;}
	.st7{fill:url(#SVGID_24_);}
	.st8{fill:#CECECE;}
	.st9{fill:#727272;}
	.st10{fill:url(#SVGID_25_);}
	.st11{fill:url(#SVGID_26_);}
	.st12{fill:url(#SVGID_27_);}
	.st13{fill:url(#SVGID_28_);}
	.st14{fill:url(#SVGID_29_);}
	.st15{fill:url(#SVGID_30_);}
	.st16{fill:url(#SVGID_31_);}
	.st17{fill:url(#SVGID_32_);}
	.st18{fill:url(#SVGID_33_);}
	.st19{fill:url(#SVGID_34_);}
	.st20{fill:url(#SVGID_35_);}
	.st21{fill:url(#SVGID_36_);}
	.st22{fill:url(#SVGID_37_);}
	.st23{fill:url(#SVGID_38_);}
	.st24{fill:url(#SVGID_39_);}
	.st25{fill:url(#SVGID_40_);}
	.st26{fill:url(#SVGID_41_);}
	.st27{fill:url(#SVGID_42_);}
	.st28{fill:url(#SVGID_43_);}
	.st29{fill:url(#SVGID_44_);}
	.st30{fill:url(#SVGID_45_);}
	.st31{fill:url(#SVGID_46_);}
</style>
<pattern  y="24" width="103.5" height="99" patternUnits="userSpaceOnUse" id="SVGID_1_" viewBox="0 -99 103.5 99" style="overflow:visible;">
	<g>
		<rect y="-99" class="st0" width="103.5" height="99"/>
		<g>
			<rect y="-99" class="st0" width="103.5" height="99"/>
			<path class="st0" d="M0-99h103.5V0H0V-99z"/>
			<path class="st1" d="M0-99h103.5V0H0V-99z"/>
		</g>
	</g>
</pattern>
<pattern  y="24" width="37.5" height="40.5" patternUnits="userSpaceOnUse" id="SVGID_10_" viewBox="0 -40.5 37.5 40.5" style="overflow:visible;">
	<g>
		<rect y="-40.5" class="st0" width="37.5" height="40.5"/>
		<g>
			<rect y="-40.5" class="st0" width="37.5" height="40.5"/>
			<path class="st0" d="M0-40.5h37.5V0H0V-40.5z"/>
			<path class="st2" d="M0-40.5h37.5V0H0V-40.5z"/>
		</g>
	</g>
</pattern>
<pattern  y="24" width="103.5" height="99" patternUnits="userSpaceOnUse" id="SVGID_11_" viewBox="0 -99 103.5 99" style="overflow:visible;">
	<g>
		<rect y="-99" class="st0" width="103.5" height="99"/>
		<g>
			<rect y="-99" class="st0" width="103.5" height="99"/>
			<path class="st0" d="M0-99h103.5V0H0V-99z"/>
			<path class="st1" d="M0-99h103.5V0H0V-99z"/>
		</g>
	</g>
</pattern>
<pattern  y="24" width="37.5" height="40.5" patternUnits="userSpaceOnUse" id="SVGID_12_" viewBox="0 -40.5 37.5 40.5" style="overflow:visible;">
	<g>
		<rect y="-40.5" class="st0" width="37.5" height="40.5"/>
		<g>
			<rect y="-40.5" class="st0" width="37.5" height="40.5"/>
			<path class="st0" d="M0-40.5h37.5V0H0V-40.5z"/>
			<path class="st2" d="M0-40.5h37.5V0H0V-40.5z"/>
		</g>
	</g>
</pattern>
<pattern  y="24" width="103.5" height="99" patternUnits="userSpaceOnUse" id="SVGID_13_" viewBox="0 -99 103.5 99" style="overflow:visible;">
	<g>
		<rect y="-99" class="st0" width="103.5" height="99"/>
		<g>
			<rect y="-99" class="st0" width="103.5" height="99"/>
			<path class="st0" d="M0-99h103.5V0H0V-99z"/>
			<path class="st1" d="M0-99h103.5V0H0V-99z"/>
		</g>
	</g>
</pattern>
<pattern  y="24" width="37.5" height="40.5" patternUnits="userSpaceOnUse" id="SVGID_14_" viewBox="0 -40.5 37.5 40.5" style="overflow:visible;">
	<g>
		<rect y="-40.5" class="st0" width="37.5" height="40.5"/>
		<g>
			<rect y="-40.5" class="st0" width="37.5" height="40.5"/>
			<path class="st0" d="M0-40.5h37.5V0H0V-40.5z"/>
			<path class="st2" d="M0-40.5h37.5V0H0V-40.5z"/>
		</g>
	</g>
</pattern>
<pattern  y="24" width="103.5" height="99" patternUnits="userSpaceOnUse" id="SVGID_15_" viewBox="0 -99 103.5 99" style="overflow:visible;">
	<g>
		<rect y="-99" class="st0" width="103.5" height="99"/>
		<g>
			<rect y="-99" class="st0" width="103.5" height="99"/>
			<path class="st0" d="M0-99h103.5V0H0V-99z"/>
			<path class="st1" d="M0-99h103.5V0H0V-99z"/>
		</g>
	</g>
</pattern>
<pattern  y="24" width="103.5" height="99" patternUnits="userSpaceOnUse" id="SVGID_16_" viewBox="0 -99 103.5 99" style="overflow:visible;">
	<g>
		<rect y="-99" class="st0" width="103.5" height="99"/>
		<g>
			<rect y="-99" class="st0" width="103.5" height="99"/>
			<path class="st0" d="M0-99h103.5V0H0V-99z"/>
			<path class="st1" d="M0-99h103.5V0H0V-99z"/>
		</g>
	</g>
</pattern>
<pattern  y="24" width="103.5" height="99" patternUnits="userSpaceOnUse" id="SVGID_17_" viewBox="0 -99 103.5 99" style="overflow:visible;">
	<g>
		<rect y="-99" class="st0" width="103.5" height="99"/>
		<g>
			<rect y="-99" class="st0" width="103.5" height="99"/>
			<path class="st0" d="M0-99h103.5V0H0V-99z"/>
			<path class="st1" d="M0-99h103.5V0H0V-99z"/>
		</g>
	</g>
</pattern>
<pattern  y="24" width="103.5" height="99" patternUnits="userSpaceOnUse" id="SVGID_18_" viewBox="0 -99 103.5 99" style="overflow:visible;">
	<g>
		<rect y="-99" class="st0" width="103.5" height="99"/>
		<g>
			<rect y="-99" class="st0" width="103.5" height="99"/>
			<path class="st0" d="M0-99h103.5V0H0V-99z"/>
			<path class="st1" d="M0-99h103.5V0H0V-99z"/>
		</g>
	</g>
</pattern>
<pattern  y="24" width="103.5" height="99" patternUnits="userSpaceOnUse" id="SVGID_19_" viewBox="0 -99 103.5 99" style="overflow:visible;">
	<g>
		<rect y="-99" class="st0" width="103.5" height="99"/>
		<g>
			<rect y="-99" class="st0" width="103.5" height="99"/>
			<path class="st0" d="M0-99h103.5V0H0V-99z"/>
			<path class="st1" d="M0-99h103.5V0H0V-99z"/>
		</g>
	</g>
</pattern>
<pattern  y="24" width="37.5" height="40.5" patternUnits="userSpaceOnUse" id="SVGID_2_" viewBox="0 -40.5 37.5 40.5" style="overflow:visible;">
	<g>
		<rect y="-40.5" class="st0" width="37.5" height="40.5"/>
		<g>
			<rect y="-40.5" class="st0" width="37.5" height="40.5"/>
			<path class="st0" d="M0-40.5h37.5V0H0V-40.5z"/>
			<path class="st3" d="M0-40.5h37.5V0H0V-40.5z"/>
		</g>
	</g>
</pattern>
<pattern  y="24" width="37.5" height="40.5" patternUnits="userSpaceOnUse" id="SVGID_20_" viewBox="0 -40.5 37.5 40.5" style="overflow:visible;">
	<g>
		<rect y="-40.5" class="st0" width="37.5" height="40.5"/>
		<g>
			<rect y="-40.5" class="st0" width="37.5" height="40.5"/>
			<path class="st0" d="M0-40.5h37.5V0H0V-40.5z"/>
			<path class="st3" d="M0-40.5h37.5V0H0V-40.5z"/>
		</g>
	</g>
</pattern>
<pattern  y="24" width="37.5" height="40.5" patternUnits="userSpaceOnUse" id="SVGID_21_" viewBox="0 -40.5 37.5 40.5" style="overflow:visible;">
	<g>
		<rect y="-40.5" class="st0" width="37.5" height="40.5"/>
		<g>
			<rect y="-40.5" class="st0" width="37.5" height="40.5"/>
			<path class="st0" d="M0-40.5h37.5V0H0V-40.5z"/>
			<path class="st4" d="M0-40.5h37.5V0H0V-40.5z"/>
		</g>
	</g>
</pattern>
<pattern  y="24" width="37.5" height="40.5" patternUnits="userSpaceOnUse" id="SVGID_22_" viewBox="0 -40.5 37.5 40.5" style="overflow:visible;">
	<g>
		<rect y="-40.5" class="st0" width="37.5" height="40.5"/>
		<g>
			<rect y="-40.5" class="st0" width="37.5" height="40.5"/>
			<path class="st0" d="M0-40.5h37.5V0H0V-40.5z"/>
			<path class="st5" d="M0-40.5h37.5V0H0V-40.5z"/>
		</g>
	</g>
</pattern>
<pattern  y="24" width="37.5" height="40.5" patternUnits="userSpaceOnUse" id="SVGID_23_" viewBox="0 -40.5 37.5 40.5" style="overflow:visible;">
	<g>
		<rect y="-40.5" class="st0" width="37.5" height="40.5"/>
		<g>
			<rect y="-40.5" class="st0" width="37.5" height="40.5"/>
			<path class="st0" d="M0-40.5h37.5V0H0V-40.5z"/>
			<path class="st2" d="M0-40.5h37.5V0H0V-40.5z"/>
		</g>
	</g>
</pattern>
<pattern  y="24" width="37.5" height="40.5" patternUnits="userSpaceOnUse" id="SVGID_3_" viewBox="0 -40.5 37.5 40.5" style="overflow:visible;">
	<g>
		<rect y="-40.5" class="st0" width="37.5" height="40.5"/>
		<g>
			<rect y="-40.5" class="st0" width="37.5" height="40.5"/>
			<path class="st0" d="M0-40.5h37.5V0H0V-40.5z"/>
			<path class="st4" d="M0-40.5h37.5V0H0V-40.5z"/>
		</g>
	</g>
</pattern>
<pattern  y="24" width="103.5" height="99" patternUnits="userSpaceOnUse" id="SVGID_4_" viewBox="0 -99 103.5 99" style="overflow:visible;">
	<g>
		<rect y="-99" class="st0" width="103.5" height="99"/>
		<g>
			<rect y="-99" class="st0" width="103.5" height="99"/>
			<path class="st0" d="M0-99h103.5V0H0V-99z"/>
			<path class="st1" d="M0-99h103.5V0H0V-99z"/>
		</g>
	</g>
</pattern>
<pattern  y="24" width="37.5" height="40.5" patternUnits="userSpaceOnUse" id="SVGID_5_" viewBox="0 -40.5 37.5 40.5" style="overflow:visible;">
	<g>
		<rect y="-40.5" class="st0" width="37.5" height="40.5"/>
		<g>
			<rect y="-40.5" class="st0" width="37.5" height="40.5"/>
			<path class="st0" d="M0-40.5h37.5V0H0V-40.5z"/>
			<path class="st5" d="M0-40.5h37.5V0H0V-40.5z"/>
		</g>
	</g>
</pattern>
<pattern  y="24" width="37.5" height="40.5" patternUnits="userSpaceOnUse" id="SVGID_6_" viewBox="0 -40.5 37.5 40.5" style="overflow:visible;">
	<g>
		<rect y="-40.5" class="st0" width="37.5" height="40.5"/>
		<g>
			<rect y="-40.5" class="st0" width="37.5" height="40.5"/>
			<path class="st0" d="M0-40.5h37.5V0H0V-40.5z"/>
			<path class="st6" d="M0-40.5h37.5V0H0V-40.5z"/>
		</g>
	</g>
</pattern>
<pattern  y="24" width="103.5" height="99" patternUnits="userSpaceOnUse" id="SVGID_7_" viewBox="0 -99 103.5 99" style="overflow:visible;">
	<g>
		<rect y="-99" class="st0" width="103.5" height="99"/>
		<g>
			<rect y="-99" class="st0" width="103.5" height="99"/>
			<path class="st0" d="M0-99h103.5V0H0V-99z"/>
			<path class="st1" d="M0-99h103.5V0H0V-99z"/>
		</g>
	</g>
</pattern>
<pattern  y="24" width="37.5" height="40.5" patternUnits="userSpaceOnUse" id="SVGID_8_" viewBox="0 -40.5 37.5 40.5" style="overflow:visible;">
	<g>
		<rect y="-40.5" class="st0" width="37.5" height="40.5"/>
		<g>
			<rect y="-40.5" class="st0" width="37.5" height="40.5"/>
			<path class="st0" d="M0-40.5h37.5V0H0V-40.5z"/>
			<path class="st2" d="M0-40.5h37.5V0H0V-40.5z"/>
		</g>
	</g>
</pattern>
<pattern  y="24" width="103.5" height="99" patternUnits="userSpaceOnUse" id="SVGID_9_" viewBox="0 -99 103.5 99" style="overflow:visible;">
	<g>
		<rect y="-99" class="st0" width="103.5" height="99"/>
		<g>
			<rect y="-99" class="st0" width="103.5" height="99"/>
			<path class="st0" d="M0-99h103.5V0H0V-99z"/>
			<path class="st1" d="M0-99h103.5V0H0V-99z"/>
		</g>
	</g>
</pattern>
<pattern  id="SVGID_24_" xlink:href="#SVGID_1_" patternTransform="matrix(1 0 0 1 -636.654 15918.918)">
</pattern>
<path class="st7" d="M15.9,4.3h-1.6V4c0-0.4-0.3-0.7-0.8-0.7h-1.6c-0.1,0-0.2,0-0.2-0.1c0-0.1,0-0.3-0.1-0.4
	c-0.2-0.5-0.7-0.9-1.3-0.9C9.9,1.8,9.4,2,9,2.3c-0.3,0.3-0.5,0.6-0.5,1c0,0,0,0,0,0c0,0-0.1,0-0.1,0H6.8C6.4,3.3,6,3.6,6,4v0.3H4.5
	C3.7,4.3,3,4.9,3,5.8v14.6c0,0.8,0.7,1.5,1.5,1.5h11.4c0.8,0,1.5-0.7,1.5-1.5V5.8C17.4,4.9,16.7,4.3,15.9,4.3z M6.7,4
	c0,0,0.1-0.1,0.2-0.1h1.6c0.2,0,0.4-0.1,0.6-0.2c0.1-0.1,0.2-0.3,0.2-0.5l0,0c0-0.2,0.1-0.3,0.3-0.5c0.3-0.2,0.6-0.3,0.9-0.3
	c0.3,0.1,0.7,0.3,0.8,0.6c0,0.1,0,0.1,0,0.2c0,0.2,0.1,0.3,0.2,0.4c0.2,0.2,0.3,0.3,0.6,0.3h1.6c0.1,0,0.2,0.1,0.2,0.1v1.2
	c0,0-0.1,0.1-0.2,0.1H6.8c-0.1,0-0.1,0-0.2-0.1C6.7,5.2,6.7,4,6.7,4z M16.8,20.4c0,0.5-0.4,0.9-0.9,0.9H4.5c0,0-0.1,0-0.1,0
	s0,0-0.1,0s-0.1,0-0.1,0c0,0-0.1,0-0.1,0S4,21.2,4,21.1c0,0-0.1-0.1-0.1-0.1c0,0-0.1-0.1-0.1-0.1c0,0,0-0.1-0.1-0.1
	c0,0-0.1-0.1-0.1-0.1c-0.1-0.1-0.1-0.3-0.1-0.4V5.8c0-0.5,0.4-0.9,0.9-0.9h1.6v0.3c0,0.4,0.3,0.7,0.8,0.7h6.7c0.4,0,0.8-0.3,0.8-0.7
	V4.9h1.6c0.2,0,0.3,0,0.4,0.1l0,0c0.1,0,0.1,0.1,0.2,0.1c0,0,0,0,0.1,0.1c0.1,0.1,0.1,0.1,0.1,0.2c0,0,0,0.1,0.1,0.1
	c0,0,0,0.1,0,0.1c0,0,0,0.1,0,0.1s0,0,0,0.1s0,0.1,0,0.1L16.8,20.4L16.8,20.4z"/>
<path class="st8" d="M16.8,5.7C16.8,5.7,16.8,5.7,16.8,5.7c0-0.1,0-0.1,0-0.2c0,0,0-0.1,0-0.1c0,0,0-0.1-0.1-0.1
	c0-0.1-0.1-0.1-0.1-0.2C16.5,5.1,16.4,5,16.3,5l0,0c-0.1-0.1-0.3-0.1-0.4-0.1h-1.6v0.3c0,0.4-0.3,0.7-0.8,0.7H6.8
	c-0.4,0-0.8-0.3-0.8-0.7V4.9H4.5C4,4.9,3.6,5.3,3.6,5.8v14.6c0,0.2,0,0.3,0.1,0.4c0,0,0,0.1,0.1,0.1c0,0.1,0,0.1,0.1,0.1
	c0,0,0.1,0.1,0.1,0.1c0,0,0.1,0.1,0.1,0.1c0,0,0.1,0,0.1,0.1c0.1,0,0.1,0,0.1,0.1c0,0,0.1,0,0.1,0s0,0,0.1,0s0.1,0,0.1,0h11.4
	c0.5,0,0.9-0.4,0.9-0.9L16.8,5.7C16.8,5.7,16.8,5.7,16.8,5.7z M4.6,6.9c0-0.2,0.1-0.3,0.3-0.3h10.7c0.2,0,0.3,0.1,0.3,0.3v13.3
	c0,0.2-0.1,0.3-0.3,0.3H4.8c-0.2,0-0.3-0.1-0.3-0.3L4.6,6.9L4.6,6.9z"/>
<path class="st9" d="M16.8,5.8v14.6c0,0.5-0.4,0.9-0.9,0.9H4.5c-0.3,0-0.7-0.2-0.8-0.5c0.1,0.1,0.3,0.1,0.4,0.1h11.4
	c0.5,0,0.9-0.4,0.9-0.9V5.4c0-0.2,0-0.3-0.1-0.4C16.6,5.1,16.8,5.4,16.8,5.8z"/>
<pattern  id="SVGID_25_" xlink:href="#SVGID_2_" patternTransform="matrix(1 0 0 1 -585.044 15869.5332)">
</pattern>
<path class="st10" d="M13.7,4v1.2c0,0-0.1,0.1-0.2,0.1H6.8c-0.1,0-0.1,0-0.2-0.1V4c0,0,0.1-0.1,0.2-0.1h1.6c0.2,0,0.4-0.1,0.6-0.2
	c0.1-0.1,0.2-0.3,0.2-0.5l0,0c0-0.2,0.1-0.3,0.3-0.5c0.3-0.2,0.6-0.3,0.9-0.3c0.3,0.1,0.7,0.3,0.8,0.6c0,0.1,0,0.1,0,0.2
	c0,0.2,0.1,0.3,0.2,0.4c0.2,0.2,0.3,0.3,0.6,0.3L13.7,4C13.7,3.9,13.7,4,13.7,4z"/>
<pattern  id="SVGID_26_" xlink:href="#SVGID_3_" patternTransform="matrix(1 0 0 1 -585.044 15869.5332)">
</pattern>
<path class="st11" d="M13.7,4v1.2c0,0-0.1,0.1-0.2,0.1H6.8c-0.1,0-0.1,0-0.2-0.1V4.8H13c0.1,0,0.2,0,0.2-0.1V3.9h0.4
	C13.7,3.9,13.7,4,13.7,4z"/>
<pattern  id="SVGID_27_" xlink:href="#SVGID_4_" patternTransform="matrix(1 0 0 1 -636.654 15918.918)">
</pattern>
<path class="st12" d="M15.5,6.6H4.8c-0.2,0-0.3,0.1-0.3,0.3v13.3c0,0.2,0.1,0.3,0.3,0.3h10.7c0.2,0,0.3-0.1,0.3-0.3V6.9
	C15.9,6.7,15.7,6.6,15.5,6.6L15.5,6.6z M15.2,19.9H5.2V7.2h10.1V19.9z"/>
<pattern  id="SVGID_28_" xlink:href="#SVGID_5_" patternTransform="matrix(1 0 0 1 -585.044 15869.5332)">
</pattern>
<path class="st13" d="M5.2,7.2v12.7h10.1V7.2H5.2z M8.6,18.8c0,0.2-0.1,0.3-0.3,0.3H6.8c-0.2,0-0.3-0.1-0.3-0.3v-1.5
	c0-0.2,0.1-0.3,0.3-0.3h1.5c0.2,0,0.3,0.1,0.3,0.3V18.8z M8.6,15.8c0,0.2-0.1,0.3-0.3,0.3H6.8c-0.2,0-0.3-0.1-0.3-0.3v-1.5
	c0-0.2,0.1-0.3,0.3-0.3h1.5c0.2,0,0.3,0.1,0.3,0.3V15.8z M8.6,12.8c0,0.2-0.1,0.3-0.3,0.3H6.8c-0.2,0-0.3-0.1-0.3-0.3v-1.5
	c0-0.2,0.1-0.3,0.3-0.3h1.5c0.2,0,0.3,0.1,0.3,0.3V12.8z M8.6,9.8c0,0.2-0.1,0.3-0.3,0.3H6.8c-0.2,0-0.3-0.1-0.3-0.3V8.2
	c0-0.2,0.1-0.3,0.3-0.3h1.5c0.2,0,0.3,0.1,0.3,0.3V9.8z M13.6,18.4H9.5c-0.2,0-0.3-0.1-0.3-0.3c0-0.2,0.1-0.3,0.3-0.3h4.1
	c0.2,0,0.3,0.1,0.3,0.3C13.9,18.2,13.7,18.4,13.6,18.4z M13.6,15.4H9.5c-0.2,0-0.3-0.1-0.3-0.3s0.1-0.3,0.3-0.3h4.1
	c0.2,0,0.3,0.1,0.3,0.3S13.7,15.4,13.6,15.4z M13.6,12.3H9.5c-0.2,0-0.3-0.1-0.3-0.3s0.1-0.3,0.3-0.3h4.1c0.2,0,0.3,0.1,0.3,0.3
	S13.7,12.3,13.6,12.3z M13.6,9.3H9.5C9.3,9.3,9.2,9.2,9.2,9c0-0.2,0.1-0.3,0.3-0.3h4.1c0.2,0,0.3,0.1,0.3,0.3
	C13.9,9.2,13.7,9.3,13.6,9.3z"/>
<pattern  id="SVGID_29_" xlink:href="#SVGID_6_" patternTransform="matrix(1 0 0 1 -585.044 15869.5332)">
</pattern>
<path class="st14" d="M15.2,7.2v12.7H5.2v-0.6h9.5V7.2H15.2z"/>
<pattern  id="SVGID_30_" xlink:href="#SVGID_7_" patternTransform="matrix(1 0 0 1 -636.654 15918.918)">
</pattern>
<path class="st15" d="M8.3,8H6.8C6.7,8,6.5,8.1,6.5,8.3v1.5c0,0.2,0.1,0.3,0.3,0.3h1.5c0.2,0,0.3-0.1,0.3-0.3V8.3
	C8.6,8.1,8.5,8,8.3,8z M8,9.5H7.1V8.6H8V9.5z"/>
<pattern  id="SVGID_31_" xlink:href="#SVGID_8_" patternTransform="matrix(1 0 0 1 -585.044 15869.5332)">
</pattern>
<path class="st16" d="M7.1,8.6H8v0.9H7.1V8.6z"/>
<pattern  id="SVGID_32_" xlink:href="#SVGID_9_" patternTransform="matrix(1 0 0 1 -636.654 15918.918)">
</pattern>
<path class="st17" d="M8.3,11H6.8c-0.2,0-0.3,0.1-0.3,0.3v1.5c0,0.2,0.1,0.3,0.3,0.3h1.5c0.2,0,0.3-0.1,0.3-0.3v-1.5
	C8.6,11.1,8.5,11,8.3,11z M8,12.5H7.1v-0.9H8V12.5z"/>
<pattern  id="SVGID_33_" xlink:href="#SVGID_10_" patternTransform="matrix(1 0 0 1 -585.044 15869.5332)">
</pattern>
<path class="st18" d="M7.1,11.6H8v0.9H7.1V11.6z"/>
<pattern  id="SVGID_34_" xlink:href="#SVGID_11_" patternTransform="matrix(1 0 0 1 -636.654 15918.918)">
</pattern>
<path class="st19" d="M8.3,14H6.8c-0.2,0-0.3,0.1-0.3,0.3v1.5c0,0.2,0.1,0.3,0.3,0.3h1.5c0.2,0,0.3-0.1,0.3-0.3v-1.5
	C8.6,14.2,8.5,14,8.3,14z M8,15.5H7.1v-0.9H8V15.5z"/>
<pattern  id="SVGID_35_" xlink:href="#SVGID_12_" patternTransform="matrix(1 0 0 1 -585.044 15869.5332)">
</pattern>
<path class="st20" d="M7.1,14.6H8v0.9H7.1V14.6z"/>
<pattern  id="SVGID_36_" xlink:href="#SVGID_13_" patternTransform="matrix(1 0 0 1 -636.654 15918.918)">
</pattern>
<path class="st21" d="M8.3,17H6.8c-0.2,0-0.3,0.1-0.3,0.3l0,0v1.5c0,0.2,0.1,0.3,0.3,0.3h1.5c0.2,0,0.3-0.1,0.3-0.3v-1.5
	C8.6,17.2,8.5,17,8.3,17z M8,18.6H7.1v-0.9H8V18.6z"/>
<pattern  id="SVGID_37_" xlink:href="#SVGID_14_" patternTransform="matrix(1 0 0 1 -585.044 15869.5332)">
</pattern>
<path class="st22" d="M7.1,17.7H8v0.9H7.1V17.7z"/>
<pattern  id="SVGID_38_" xlink:href="#SVGID_15_" patternTransform="matrix(1 0 0 1 -636.654 15918.918)">
</pattern>
<path class="st23" d="M13.9,9c0,0.2-0.1,0.3-0.3,0.3H9.5C9.3,9.3,9.2,9.2,9.2,9c0-0.2,0.1-0.3,0.3-0.3h4.1C13.7,8.7,13.9,8.9,13.9,9
	z"/>
<pattern  id="SVGID_39_" xlink:href="#SVGID_16_" patternTransform="matrix(1 0 0 1 -636.654 15918.918)">
</pattern>
<path class="st24" d="M13.9,12.1c0,0.2-0.1,0.3-0.3,0.3H9.5c-0.2,0-0.3-0.1-0.3-0.3s0.1-0.3,0.3-0.3h4.1
	C13.7,11.7,13.9,11.9,13.9,12.1z"/>
<pattern  id="SVGID_40_" xlink:href="#SVGID_17_" patternTransform="matrix(1 0 0 1 -636.654 15918.918)">
</pattern>
<path class="st25" d="M13.9,15.1c0,0.2-0.1,0.3-0.3,0.3H9.5c-0.2,0-0.3-0.1-0.3-0.3s0.1-0.3,0.3-0.3h4.1
	C13.7,14.8,13.9,14.9,13.9,15.1z"/>
<pattern  id="SVGID_41_" xlink:href="#SVGID_18_" patternTransform="matrix(1 0 0 1 -636.654 15918.918)">
</pattern>
<path class="st26" d="M13.9,18.1c0,0.2-0.1,0.3-0.3,0.3H9.5c-0.2,0-0.3-0.1-0.3-0.3c0-0.2,0.1-0.3,0.3-0.3h4.1
	C13.7,17.8,13.9,17.9,13.9,18.1z"/>
<pattern  id="SVGID_42_" xlink:href="#SVGID_19_" patternTransform="matrix(1 0 0 1 -636.654 15918.918)">
</pattern>
<path class="st27" d="M21,19.3C21,19.3,20.9,19.3,21,19.3l0-9.4l0,0v0c0,0,0-0.1,0-0.1l0,0l-1-2.3c-0.1-0.1-0.2-0.2-0.3-0.2
	s-0.2,0.1-0.3,0.2l-0.9,2.3l0,0c0,0,0,0,0,0.1s0,0,0,0.1l0,0l0,10.7c0,0.7,0.6,1.3,1.3,1.3l0,0h0.1c0.3,0,0.6-0.1,0.9-0.4
	c0.2-0.2,0.4-0.5,0.4-0.9V19.3C20.9,19.3,20.9,19.3,21,19.3z M19.6,8.4l0.5,1.3h-1L19.6,8.4z M20.3,10.2l0,8.8H19l0-8.8
	C19,10.3,20.3,10.2,20.3,10.2z M20.2,21.1c-0.1,0.1-0.3,0.2-0.4,0.2h-0.1c-0.2,0-0.3-0.1-0.4-0.2S19,20.8,19,20.7v-1h1.3v1
	C20.4,20.8,20.3,21,20.2,21.1z"/>
<pattern  id="SVGID_43_" xlink:href="#SVGID_20_" patternTransform="matrix(1 0 0 1 -585.044 15869.5332)">
</pattern>
<path class="st28" d="M20.4,19H19l0-8.8h1.3L20.4,19z"/>
<pattern  id="SVGID_44_" xlink:href="#SVGID_21_" patternTransform="matrix(1 0 0 1 -585.044 15869.5332)">
</pattern>
<path class="st29" d="M20.4,19H19v-0.4h1.1l0-8.4h0.3L20.4,19z"/>
<pattern  id="SVGID_45_" xlink:href="#SVGID_22_" patternTransform="matrix(1 0 0 1 -585.044 15869.5332)">
</pattern>
<path class="st30" d="M20.2,9.7h-1l0.5-1.3L20.2,9.7z"/>
<pattern  id="SVGID_46_" xlink:href="#SVGID_23_" patternTransform="matrix(1 0 0 1 -585.044 15869.5332)">
</pattern>
<path class="st31" d="M20.4,20.6c0,0.2-0.1,0.3-0.2,0.4c-0.1,0.1-0.3,0.2-0.4,0.2h-0.1c-0.2,0-0.3-0.1-0.4-0.2
	c-0.1-0.1-0.2-0.3-0.2-0.4v-1h1.3V20.6z"/>
</svg>
