<?xml version="1.0" encoding="utf-8"?>
<!-- Generator: Adobe Illustrator 24.1.2, SVG Export Plug-In . SVG Version: 6.00 Build 0)  -->
<svg version="1.1" id="Server" xmlns="http://www.w3.org/2000/svg" xmlns:xlink="http://www.w3.org/1999/xlink" x="0px" y="0px"
	 viewBox="0 0 24 24" style="enable-background:new 0 0 24 24;" xml:space="preserve">
<style type="text/css">
	.st0{fill:#29A1DC;}
	.st1{clip-path:url(#SVGID_2_);fill:#7DBCE7;}
	.st2{fill:#010101;}
	.st3{fill:#F5CCB3;}
	.st4{fill:#FFFFFF;}
	.st5{fill:#AF5C51;}
	.st6{fill:#C4E5D9;}
</style>
<path class="st0" d="M18.6,19.8c0,1.3-2.9,2.3-6.5,2.3s-6.5-1-6.5-2.3c0-1.3,2.9-2.3,6.5-2.3S18.6,18.5,18.6,19.8z"/>
<g>
	<defs>
		<path id="SVGID_1_" d="M9.3,23.8c0.1,0.7,0.5,1.1,0.8,1.3h3.7c0.5-0.3,0.9-0.9,0.9-2v-2.8c0,0,0.1-0.7,0.7-0.9c0,0,0.4-0.3,0-0.4
			c0,0-1.8-0.1-1.8,1.3v2.1c0,0,0.1,0.8-0.3,1.1V21c0,0,0-0.8,0.5-1.2c0,0,0.3-0.5-0.3-0.4c0,0-1.2,0.2-1.3,1.6l0,2.7h-0.3l0-2.7
			c-0.1-1.4-1.3-1.6-1.3-1.6c-0.6-0.1-0.3,0.4-0.3,0.4c0.4,0.3,0.5,1.2,0.5,1.2v2.7c-0.4-0.3-0.3-1.1-0.3-1.1v-2.1
			c0-1.4-1.8-1.3-1.8-1.3c-0.4,0.1,0,0.4,0,0.4c0.6,0.2,0.7,0.9,0.7,0.9v2L9.3,23.8L9.3,23.8z"/>
	</defs>
	<clipPath id="SVGID_2_">
		<use xlink:href="#SVGID_1_"  style="overflow:visible;"/>
	</clipPath>
	<path class="st1" d="M18.6,19.8c0,1.3-2.9,2.3-6.5,2.3s-6.5-1-6.5-2.3c0-1.3,2.9-2.3,6.5-2.3S18.6,18.5,18.6,19.8z"/>
</g>
<path class="st0" d="M4.7,13.1l-0.2,0.6c0,0,0,0.2,0.2,0.3c0.2,0,0.2-0.2,0.2-0.3L4.7,13.1L4.7,13.1z"/>
<path class="st2" d="M23.5,10.4L23.5,10.4c-1.9-0.5-3.8-0.5-5-0.4c0.2-0.7,0.3-1.5,0.3-2.4c0-1.3-0.5-2.3-1.3-3.1
	C17.6,4,17.8,3,17.3,1.8c0,0-0.9-0.3-2.9,1.1c-0.8-0.2-1.6-0.3-2.5-0.3c-0.9,0-1.8,0.1-2.7,0.4c-2.1-1.4-3-1.1-3-1.1
	C5.7,3.3,6,4.4,6.1,4.6C5.4,5.4,5,6.4,5,7.6c0,0.9,0.1,1.7,0.4,2.4c-1.2,0-3.1,0-4.9,0.3l0,0.1C2.3,10,4.2,10,5.4,10
	c0.1,0.1,0.1,0.3,0.2,0.4c-1.2,0-3.2,0.2-5.1,0.7l0,0.1c1.9-0.5,3.9-0.7,5.1-0.7c0.7,1.3,2.1,2.1,4.5,2.4c-0.4,0.2-0.7,0.6-0.8,1.3
	c-0.5,0.2-2,0.8-2.9-0.8c0,0-0.5-0.9-1.5-1c0,0-0.9,0-0.1,0.6c0,0,0.6,0.3,1.1,1.4c0,0,0.6,1.9,3.3,1.3v1.9c0,0-0.1,0.7-0.7,0.9
	c0,0-0.4,0.3,0,0.4c0,0,1.8,0.1,1.8-1.3v-2.1c0,0-0.1-0.8,0.3-1.1V18c0,0,0,0.8-0.5,1.2c0,0-0.3,0.5,0.3,0.4c0,0,1.2-0.2,1.3-1.6
	l0-3.5h0.3l0,3.5c0.1,1.4,1.3,1.6,1.3,1.6c0.6,0.1,0.3-0.4,0.3-0.4c-0.4-0.3-0.5-1.2-0.5-1.2v-3.5c0.4,0.3,0.3,1.1,0.3,1.1v2.1
	c0,1.4,1.8,1.3,1.8,1.3c0.4-0.1,0-0.4,0-0.4c-0.6-0.2-0.7-0.9-0.7-0.9v-2.8c0-1.1-0.5-1.7-0.9-2c2.6-0.3,3.9-1.1,4.4-2.4
	c1.1,0,3.2,0.2,5.2,0.7l0-0.1c-2-0.6-4-0.7-5.2-0.7c0.1-0.1,0.1-0.3,0.1-0.4C19.7,10,21.6,10,23.5,10.4L23.5,10.4z"/>
<path class="st3" d="M16.2,7.5c0.6,0.5,0.9,1.1,0.9,1.8c0,3.1-2.3,3.2-5.2,3.2S6.8,12,6.8,9.3c0-0.7,0.3-1.3,0.9-1.8
	c0.9-0.8,2.5-0.4,4.3-0.4S15.3,6.6,16.2,7.5L16.2,7.5z"/>
<path class="st4" d="M10.2,9.4c0,0.9-0.5,1.5-1.1,1.5s-1.1-0.7-1.1-1.5c0-0.9,0.5-1.5,1.1-1.5C9.7,7.9,10.2,8.6,10.2,9.4z"/>
<path class="st5" d="M9.9,9.5c0,0.6-0.3,1-0.7,1c-0.4,0-0.7-0.5-0.7-1c0-0.6,0.3-1,0.7-1C9.6,8.4,9.9,8.9,9.9,9.5z"/>
<path class="st4" d="M16,9.4c0,0.9-0.5,1.5-1.1,1.5c-0.6,0-1.1-0.7-1.1-1.5c0-0.9,0.5-1.5,1.1-1.5C15.5,7.9,16,8.6,16,9.4z"/>
<path class="st5" d="M15.6,9.5c0,0.6-0.3,1-0.7,1c-0.4,0-0.7-0.5-0.7-1c0-0.6,0.3-1,0.7-1C15.3,8.4,15.6,8.9,15.6,9.5z M12.2,10.8
	c0,0.1-0.1,0.3-0.3,0.3c-0.1,0-0.3-0.1-0.3-0.3c0-0.2,0.1-0.3,0.3-0.3C12.1,10.5,12.2,10.7,12.2,10.8z M11.3,11.5c0,0,0-0.1,0.1-0.1
	c0,0,0.1,0,0.1,0.1c0.1,0.2,0.3,0.3,0.5,0.3c0.2,0,0.4-0.1,0.5-0.3c0,0,0.1-0.1,0.1-0.1c0,0,0.1,0.1,0.1,0.1
	c-0.1,0.3-0.3,0.4-0.6,0.4C11.7,11.9,11.4,11.8,11.3,11.5L11.3,11.5z"/>
<path class="st6" d="M5.4,12.7c0,0.1-0.1,0.1-0.2,0.1c-0.1,0-0.2-0.1-0.2-0.1s0.1-0.1,0.2-0.1C5.3,12.6,5.4,12.6,5.4,12.7z M5.9,13
	c0,0.1-0.1,0.1-0.2,0.1c-0.1,0-0.2-0.1-0.2-0.1s0.1-0.1,0.2-0.1C5.8,12.9,5.9,12.9,5.9,13z M6.2,13.4c0,0.1-0.1,0.1-0.2,0.1
	c-0.1,0-0.2-0.1-0.2-0.1c0-0.1,0.1-0.1,0.2-0.1C6.1,13.3,6.2,13.3,6.2,13.4z M6.5,13.8c0,0.1-0.1,0.1-0.2,0.1
	c-0.1,0-0.2-0.1-0.2-0.1c0-0.1,0.1-0.1,0.2-0.1C6.4,13.7,6.5,13.7,6.5,13.8z M6.8,14.2c0,0.1-0.1,0.1-0.2,0.1
	c-0.1,0-0.2-0.1-0.2-0.1c0-0.1,0.1-0.1,0.2-0.1C6.7,14.1,6.8,14.1,6.8,14.2z M7.2,14.6c0,0.1-0.1,0.1-0.2,0.1
	c-0.1,0-0.2-0.1-0.2-0.1c0-0.1,0.1-0.1,0.2-0.1C7.2,14.4,7.2,14.5,7.2,14.6z M7.8,14.8c0,0.1-0.1,0.1-0.2,0.1
	c-0.1,0-0.2-0.1-0.2-0.1c0-0.1,0.1-0.1,0.2-0.1C7.8,14.7,7.8,14.7,7.8,14.8z M8.5,14.8c0,0.1-0.1,0.1-0.2,0.1
	c-0.1,0-0.2-0.1-0.2-0.1c0-0.1,0.1-0.1,0.2-0.1C8.4,14.7,8.5,14.7,8.5,14.8z M9.1,14.7c0,0.1-0.1,0.1-0.2,0.1
	c-0.1,0-0.2-0.1-0.2-0.1c0-0.1,0.1-0.1,0.2-0.1C9,14.6,9.1,14.6,9.1,14.7z"/>
</svg>
