<svg xmlns="http://www.w3.org/2000/svg" viewBox="0 0 24 24" id="Server"><path fill="#303c42" d="M2 7h20v3H2z" class="color303c42 svgShape"></path><path d="M2 7h20v3H2z" opacity=".1" fill="#000000" class="color000000 svgShape"></path><path fill="#303c42" d="M2 14h20v3H2z" class="color303c42 svgShape"></path><path d="M2 14h20v3H2z" opacity=".1" fill="#000000" class="color000000 svgShape"></path><path fill="#303c42" d="M1 3v4a1 1 0 0 0 1 1h20a1 1 0 0 0 1-1V3a1 1 0 0 0-1-1H2a1 1 0 0 0-1 1z" class="color303c42 svgShape"></path><path d="M22 7.75H2a1 1 0 0 1-1-1V7a1 1 0 0 0 1 1h20a1 1 0 0 0 1-1v-.25a1 1 0 0 1-1 1z" opacity=".2" fill="#000000" class="color000000 svgShape"></path><path fill="#ffffff" d="M22 2H2a1 1 0 0 0-1 1v.25a1 1 0 0 1 1-1h20a1 1 0 0 1 1 1V3a1 1 0 0 0-1-1z" opacity=".1" class="colorffffff svgShape"></path><circle cx="19.5" cy="5" r=".5" fill="#428eb3" class="color69b342 svgShape"></circle><circle cx="17.5" cy="5" r=".5" fill="#428eb3" class="color69b342 svgShape"></circle><circle cx="15.5" cy="5" r=".5" fill="#428eb3" class="color69b342 svgShape"></circle><circle cx="5" cy="5" r="1" fill="#29a1dc" class="colorc6cdd1 svgShape"></circle><linearGradient id="a" x1="4.368" x2="5.487" y1="4.368" y2="5.487" gradientUnits="userSpaceOnUse"><stop offset="0" stop-opacity=".1"></stop><stop offset="1" stop-opacity="0"></stop></linearGradient><circle cx="5" cy="5" r="1" fill="url(#a)"></circle><path fill="#303c42" d="M1 10v4a1 1 0 0 0 1 1h20a1 1 0 0 0 1-1v-4a1 1 0 0 0-1-1H2a1 1 0 0 0-1 1z" class="color303c42 svgShape"></path><path d="M22 14.75H2a1 1 0 0 1-1-1V14a1 1 0 0 0 1 1h20a1 1 0 0 0 1-1v-.25a1 1 0 0 1-1 1z" opacity=".2" fill="#000000" class="color000000 svgShape"></path><path fill="#ffffff" d="M22 9H2a1 1 0 0 0-1 1v.25a1 1 0 0 1 1-1h20a1 1 0 0 1 1 1V10a1 1 0 0 0-1-1z" opacity=".1" class="colorffffff svgShape"></path><circle cx="19.5" cy="12" r=".5" fill="#428eb3" class="color69b342 svgShape"></circle><circle cx="17.5" cy="12" r=".5" fill="#428eb3" class="color69b342 svgShape"></circle><circle cx="15.5" cy="12" r=".5" fill="#428eb3" class="color69b342 svgShape"></circle><circle cx="5" cy="12" r="1" fill="#29a1dc" class="colorc6cdd1 svgShape"></circle><linearGradient id="b" x1="4.368" x2="5.487" y1="11.368" y2="12.487" gradientUnits="userSpaceOnUse"><stop offset="0" stop-opacity=".1"></stop><stop offset="1" stop-opacity="0"></stop></linearGradient><circle cx="5" cy="12" r="1" fill="url(#b)"></circle><path fill="#303c42" d="M1 17v4a1 1 0 0 0 1 1h20a1 1 0 0 0 1-1v-4a1 1 0 0 0-1-1H2a1 1 0 0 0-1 1z" class="color303c42 svgShape"></path><path d="M22 21.75H2a1 1 0 0 1-1-1V21a1 1 0 0 0 1 1h20a1 1 0 0 0 1-1v-.25a1 1 0 0 1-1 1z" opacity=".2" fill="#000000" class="color000000 svgShape"></path><path fill="#ffffff" d="M22 16H2a1 1 0 0 0-1 1v.25a1 1 0 0 1 1-1h20a1 1 0 0 1 1 1V17a1 1 0 0 0-1-1z" opacity=".1" class="colorffffff svgShape"></path><circle cx="19.5" cy="19" r=".5" fill="#428eb3" class="color69b342 svgShape"></circle><circle cx="17.5" cy="19" r=".5" fill="#428eb3" class="color69b342 svgShape"></circle><circle cx="15.5" cy="19" r=".5" fill="#428eb3" class="color69b342 svgShape"></circle><circle cx="5" cy="19" r="1" fill="#29a1dc" class="colorc6cdd1 svgShape"></circle><linearGradient id="c" x1="4.368" x2="5.487" y1="18.368" y2="19.487" gradientUnits="userSpaceOnUse"><stop offset="0" stop-opacity=".1"></stop><stop offset="1" stop-opacity="0"></stop></linearGradient><circle cx="5" cy="19" r="1" fill="url(#c)"></circle><linearGradient id="d" x1="-.568" x2="24.568" y1="6.14" y2="17.86" gradientUnits="userSpaceOnUse"><stop offset="0" stop-color="#ffffff" stop-opacity=".2" class="stopColorffffff svgShape"></stop><stop offset="1" stop-color="#ffffff" stop-opacity="0" class="stopColorffffff svgShape"></stop></linearGradient><path fill="url(#d)" d="M23 7V3a1 1 0 0 0-1-1H2a1 1 0 0 0-1 1v4a1 1 0 0 0 1 1v1a1 1 0 0 0-1 1v4a1 1 0 0 0 1 1v1a1 1 0 0 0-1 1v4a1 1 0 0 0 1 1h20a1 1 0 0 0 1-1v-4a1 1 0 0 0-1-1v-1a1 1 0 0 0 1-1v-4a1 1 0 0 0-1-1V8a1 1 0 0 0 1-1z"></path></svg>