<?xml version="1.0" encoding="utf-8"?>
<!-- Generator: Adobe Illustrator 25.0.1, SVG Export Plug-In . SVG Version: 6.00 Build 0)  -->
<svg version="1.1" id="Server" xmlns="http://www.w3.org/2000/svg" xmlns:xlink="http://www.w3.org/1999/xlink" x="0px" y="0px"
	 viewBox="0 0 24 24" style="enable-background:new 0 0 24 24;" xml:space="preserve">
<style type="text/css">
	.st0{fill:#303C42;}
	.st1{opacity:0.1;enable-background:new    ;}
	.st2{opacity:0.2;enable-background:new    ;}
	.st3{opacity:0.1;fill:#FFFFFF;enable-background:new    ;}
	.st4{fill:#428EB3;}
	.st5{fill:#C6CDD1;}
	.st6{fill:url(#SVGID_1_);}
	.st7{fill:url(#SVGID_2_);}
	.st8{fill:none;}
	.st9{fill:url(#SVGID_3_);}
	.st10{fill:#29A1DC;}
	.st11{fill:#EFF2F4;}
	.st12{fill:#ACB5BA;}
	.st13{fill:#CEDAE0;}
	.st14{fill:#E6EBEE;}
	.st15{fill:#3F5C6B;}
	.st16{fill:#22353F;}
	.st17{fill:#2B424E;}
	.st18{fill:#324F5E;}
</style>
<path class="st0" d="M2,7.5h18.2v2.7H2V7.5z"/>
<path class="st1" d="M2,7.5h18.2v2.7H2V7.5z"/>
<path class="st0" d="M1.1,3.8v3.6c0,0.6,0.4,1,0.9,1h18.2c0.5,0,0.9-0.4,0.9-0.9V3.8c0-0.5-0.4-0.9-0.9-0.9H2
	C1.5,2.9,1.1,3.3,1.1,3.8z"/>
<path class="st2" d="M20.2,8.1H2c-0.5,0-0.9-0.4-0.9-0.9v0.2c0,0.6,0.4,1,0.9,1h18.2c0.5,0,0.9-0.4,0.9-0.9V7.2
	C21.1,7.7,20.7,8.1,20.2,8.1z"/>
<path class="st3" d="M20.2,2.9H2c-0.5,0-0.9,0.4-0.9,0.9V4c0-0.5,0.4-0.9,0.9-0.9h18.2c0.5,0,0.9,0.4,0.9,0.9V3.8
	C21.1,3.3,20.7,2.9,20.2,2.9z"/>
<circle class="st4" cx="17.9" cy="5.6" r="0.5"/>
<circle class="st4" cx="16.1" cy="5.6" r="0.5"/>
<circle class="st4" cx="14.3" cy="5.6" r="0.5"/>
<circle class="st5" cx="4.7" cy="5.6" r="0.9"/>
<linearGradient id="SVGID_1_" gradientUnits="userSpaceOnUse" x1="4.1668" y1="-1953.0668" x2="5.1828" y2="-1954.0828" gradientTransform="matrix(1 0 0 -1 0 -1948)">
	<stop  offset="0" style="stop-color:#000000;stop-opacity:0.1"/>
	<stop  offset="1" style="stop-color:#000000;stop-opacity:0"/>
</linearGradient>
<circle class="st6" cx="4.7" cy="5.6" r="0.9"/>
<path class="st0" d="M1.1,10.2v3.6c0,0.5,0.4,0.9,0.9,0.9h18.2c0.5,0,0.9-0.4,0.9-0.9v-3.6c0-0.5-0.4-0.9-0.9-0.9H2
	C1.5,9.3,1.1,9.7,1.1,10.2z"/>
<path class="st2" d="M20.2,14.5H2c-0.5,0-0.9-0.4-0.9-0.9v0.2c0,0.5,0.4,0.9,0.9,0.9h18.2c0.5,0,0.9-0.4,0.9-0.9v-0.2
	C21.1,14.1,20.7,14.5,20.2,14.5z"/>
<path class="st3" d="M20.2,9.3H2c-0.5,0-0.9,0.4-0.9,0.9v0.2c0-0.5,0.4-0.9,0.9-0.9h18.2c0.5,0,0.9,0.4,0.9,0.9v-0.2
	C21.1,9.7,20.7,9.3,20.2,9.3z"/>
<circle class="st4" cx="17.9" cy="12" r="0.5"/>
<circle class="st4" cx="16.1" cy="12" r="0.5"/>
<circle class="st4" cx="14.3" cy="12" r="0.5"/>
<circle class="st5" cx="4.7" cy="12" r="0.9"/>
<linearGradient id="SVGID_2_" gradientUnits="userSpaceOnUse" x1="4.1445" y1="-1959.4445" x2="5.1605" y2="-1960.4604" gradientTransform="matrix(1 0 0 -1 0 -1948)">
	<stop  offset="0" style="stop-color:#000000;stop-opacity:0.1"/>
	<stop  offset="1" style="stop-color:#000000;stop-opacity:0"/>
</linearGradient>
<circle class="st7" cx="4.7" cy="12" r="0.9"/>
<path class="st8" d="M19.1,13c0,0.4,0.3,0.7,0.7,0.8l0,0c0.4,0,0.8-0.3,0.8-0.8c0-0.4-0.3-0.7-0.7-0.8c0,0,0,0-0.1,0
	C19.5,12.3,19.1,12.6,19.1,13L19.1,13z"/>
<linearGradient id="SVGID_3_" gradientUnits="userSpaceOnUse" x1="0.6335" y1="1978.4908" x2="25.081" y2="1989.8916" gradientTransform="matrix(1 0 0 1 0 -1974)">
	<stop  offset="0" style="stop-color:#FFFFFF;stop-opacity:0.2"/>
	<stop  offset="1" style="stop-color:#FFFFFF;stop-opacity:0"/>
</linearGradient>
<path class="st9" d="M22.4,13.8H21v-3.6c0-0.5-0.4-0.9-0.9-0.9V8.4C20.6,8.4,21,8,21,7.5V3.8c0-0.5-0.4-0.9-0.9-0.9H2
	C1.5,2.9,1,3.3,1,3.8v3.6c0,0.6,0.4,1,0.9,1v0.9C1.5,9.3,1,9.7,1,10.2v3.6c0,0.5,0.4,0.9,0.9,0.9h10.9v5.9c0,0.3,0.2,0.5,0.5,0.5
	h9.1c0.3,0,0.5-0.2,0.5-0.5v-6.4C22.9,14,22.7,13.8,22.4,13.8z"/>
<path class="st10" d="M22.4,16.2c0,2.7-2.2,4.8-4.8,4.8c-2.7,0-4.8-2.1-4.8-4.8c0-2.7,2.2-4.8,4.8-4.8
	C20.2,11.3,22.4,13.5,22.4,16.2z"/>
<path class="st11" d="M22,12.7l-0.5-0.1c0,0-0.1,0-0.1-0.1c0-0.2-0.1-0.3-0.2-0.5c0,0,0-0.1,0-0.1l0.2-0.4c0,0,0-0.1,0-0.1l-0.3-0.3
	c0,0-0.1,0-0.1,0l-0.4,0.2c0,0-0.1,0-0.1,0c-0.1-0.1-0.3-0.1-0.4-0.2c0,0-0.1,0-0.1-0.1L20,10.6c0,0-0.1-0.1-0.1-0.1h-0.4
	c0,0-0.1,0-0.1,0.1l-0.1,0.5c0,0,0,0.1-0.1,0.1c0,0-0.1,0-0.1,0c-0.1,0-0.2,0.1-0.2,0.1c0,0-0.1,0-0.1,0.1c0,0,0,0,0,0c0,0,0,0,0,0
	c0,0,0,0,0,0c0,0,0,0,0,0c0,0,0,0,0,0l-0.4-0.2c0,0-0.1,0-0.1,0l-0.2,0.2h0l-0.1,0.1h0c0,0,0,0,0,0.1c0,0,0,0.1,0,0.1l0.2,0.4
	c0,0,0,0,0,0c0,0,0,0.1,0,0.1c-0.1,0.1-0.1,0.3-0.2,0.5c0,0,0,0.1-0.1,0.1l-0.5,0.1c0,0,0,0,0,0c0,0,0,0,0,0c0,0,0,0,0,0.1v0.4
	c0,0,0,0,0,0c0,0,0,0,0,0c0,0,0,0,0,0c0,0,0,0,0,0l0.5,0.1c0,0,0.1,0,0.1,0.1c0,0.2,0.1,0.3,0.2,0.5c0,0,0,0.1,0,0.1l-0.2,0.4
	c0,0,0,0.1,0,0.1c0,0,0,0,0,0.1h0l0.3,0.3c0,0,0.1,0,0.1,0l0.4-0.2c0,0,0,0,0,0c0,0,0.1,0,0.1,0c0,0,0.1,0,0.1,0.1
	c0.1,0,0.2,0.1,0.2,0.1c0,0,0.1,0,0.1,0c0,0,0.1,0,0.1,0.1l0.1,0.5c0,0,0.1,0.1,0.1,0.1h0.4c0.1,0,0.1,0,0.1-0.1l0.1-0.5
	c0,0,0-0.1,0.1-0.1c0.2,0,0.3-0.1,0.4-0.2c0,0,0.1,0,0.1,0l0.4,0.2c0,0,0.1,0,0.1,0l0.3-0.3c0,0,0-0.1,0-0.1l-0.2-0.4
	c0,0,0-0.1,0-0.1c0.1-0.1,0.1-0.3,0.2-0.5c0,0,0,0,0-0.1c0,0,0,0,0,0l0.5-0.1c0,0,0.1-0.1,0.1-0.1v-0.4C22.1,12.8,22.1,12.7,22,12.7
	z M19.8,14.1c-0.1,0-0.3,0-0.4,0c-0.2,0-0.4-0.1-0.6-0.3c0,0,0,0,0,0c-0.1-0.2-0.2-0.3-0.2-0.5c0-0.1,0-0.3,0-0.4
	c0-0.5,0.4-0.9,0.8-1c0.2,0,0.3-0.1,0.5,0c0,0,0,0,0,0c0.2,0,0.4,0.1,0.6,0.3c0,0,0,0,0,0c0.1,0.1,0.1,0.1,0.1,0.2l0,0
	c0.1,0.1,0.1,0.3,0.1,0.4C20.9,13.4,20.4,14,19.8,14.1C19.8,14.1,19.8,14.1,19.8,14.1z"/>
<path class="st8" d="M18.9,13c0,0.4,0.3,0.7,0.7,0.8c0,0,0,0,0,0c0.4,0,0.8-0.3,0.8-0.8c0-0.4-0.3-0.7-0.7-0.8c0,0,0,0-0.1,0
	C19.2,12.3,18.9,12.6,18.9,13L18.9,13z"/>
<path class="st12" d="M20.8,13c0-0.6-0.5-1.2-1.1-1.2c0.1,0.1,0.2,0.2,0.1,0.3c0,0.1-0.1,0.1-0.2,0.1c0.4,0,0.7,0.4,0.7,0.8
	c0,0.4-0.3,0.8-0.8,0.8c0,0,0,0,0,0c-0.1,0-0.2,0.1-0.2,0.2c0,0.1,0.1,0.2,0.2,0.2c0,0,0,0,0.1,0C20.3,14.2,20.8,13.7,20.8,13z"/>
<path class="st13" d="M18.9,13.3c0-0.1-0.1-0.2-0.1-0.3c0-0.4,0.3-0.8,0.8-0.8c0,0,0,0,0.1,0c0.1,0,0.2-0.2,0.2-0.3
	c0-0.1-0.1-0.1-0.1-0.2c0,0-0.1,0-0.1,0c-0.7,0-1.2,0.5-1.2,1.2c0,0.1,0,0.2,0,0.3C18.5,13.3,18.9,13.3,18.9,13.3z"/>
<path class="st13" d="M19.7,13.8C19.7,13.8,19.6,13.8,19.7,13.8c-0.5,0-0.8-0.3-0.8-0.8c0,0,0,0,0-0.1h-0.5c0,0,0,0,0,0.1
	c0,0.7,0.5,1.2,1.2,1.2c0,0,0,0,0.1,0c0.1,0,0.2-0.1,0.2-0.2C19.9,13.9,19.8,13.8,19.7,13.8z"/>
<path class="st8" d="M20.5,13c0,0.5-0.4,0.8-0.8,0.9c0,0,0,0,0,0c-0.5,0-0.9-0.4-0.9-0.9c0-0.5,0.3-0.8,0.8-0.8c0,0,0,0,0.1,0
	C20.1,12.2,20.5,12.6,20.5,13L20.5,13z"/>
<path class="st14" d="M19.2,14.8c-0.6-0.4-1-1-1-1.8c0-0.8,0.4-1.4,1-1.8v-0.1c-0.2,0-0.3,0.1-0.5,0.2c0,0-0.1,0-0.1,0l-0.4-0.2
	c0,0-0.1,0-0.1,0l-0.3,0.3c0,0,0,0.1,0,0.1l0.2,0.4c0,0,0,0.1,0,0.1c-0.1,0.1-0.1,0.3-0.2,0.5c0,0,0,0.1-0.1,0.1l-0.5,0.1
	c0,0-0.1,0.1-0.1,0.1v0.4c0,0.1,0,0.1,0.1,0.1l0.5,0.1c0,0,0.1,0,0.1,0.1c0,0.2,0.1,0.3,0.2,0.5c0,0,0,0.1,0,0.1l-0.2,0.4
	c0,0,0,0.1,0,0.1l0.3,0.3c0,0,0.1,0,0.1,0l0.4-0.2c0,0,0.1,0,0.1,0C18.8,14.8,19,14.9,19.2,14.8L19.2,14.8L19.2,14.8z"/>
<path class="st15" d="M23,18.3l-0.3-0.1c0,0-0.1,0-0.1-0.1c0-0.1-0.1-0.2-0.1-0.3c0,0,0-0.1,0-0.1l0.2-0.3c0,0,0-0.1,0-0.1l-0.2-0.2
	c0,0-0.1,0-0.1,0l-0.3,0.2c0,0-0.1,0-0.1,0c-0.1-0.1-0.2-0.1-0.3-0.1c0,0-0.1,0-0.1-0.1l-0.1-0.3c0,0,0-0.1-0.1-0.1h-0.3
	c0,0-0.1,0-0.1,0.1l-0.1,0.3c0,0,0,0-0.1,0.1c0,0,0,0-0.1,0c-0.1,0-0.1,0-0.2,0.1c0,0-0.1,0-0.1,0c0,0,0,0,0,0c0,0,0,0,0,0
	c0,0,0,0,0,0c0,0,0,0,0,0c0,0,0,0,0,0l-0.3-0.2c0,0-0.1,0-0.1,0l-0.2,0.2h0l0,0h0c0,0,0,0,0,0c0,0,0,0,0,0.1l0.2,0.3c0,0,0,0,0,0
	c0,0,0,0,0,0.1c-0.1,0.1-0.1,0.2-0.1,0.3c0,0,0,0-0.1,0.1l-0.3,0.1c0,0,0,0,0,0c0,0,0,0,0,0c0,0,0,0,0,0v0.3c0,0,0,0,0,0
	c0,0,0,0,0,0c0,0,0,0,0,0c0,0,0,0,0,0l0.3,0.1c0,0,0.1,0,0.1,0.1c0,0.1,0.1,0.2,0.1,0.3c0,0,0,0.1,0,0.1l-0.2,0.3c0,0,0,0,0,0.1
	c0,0,0,0,0,0h0l0.2,0.2c0,0,0.1,0,0.1,0l0.3-0.2c0,0,0,0,0,0c0,0,0,0,0.1,0c0,0,0.1,0,0.1,0c0.1,0,0.1,0.1,0.2,0.1c0,0,0,0,0.1,0
	c0,0,0.1,0,0.1,0.1l0.1,0.3c0,0,0,0.1,0.1,0.1h0.3c0,0,0.1,0,0.1-0.1l0.1-0.3c0,0,0-0.1,0.1-0.1c0.1,0,0.2-0.1,0.3-0.1
	c0,0,0.1,0,0.1,0l0.3,0.2c0,0,0.1,0,0.1,0l0.2-0.2c0,0,0-0.1,0-0.1l-0.2-0.3c0,0,0-0.1,0-0.1c0.1-0.1,0.1-0.2,0.1-0.3c0,0,0,0,0,0
	c0,0,0,0,0,0l0.3-0.1c0,0,0.1,0,0.1-0.1L23,18.3C23.1,18.3,23.1,18.3,23,18.3L23,18.3z M21.4,19.3c-0.1,0-0.2,0-0.3,0
	c-0.1,0-0.3-0.1-0.5-0.2c0,0,0,0,0,0c-0.1-0.1-0.2-0.3-0.2-0.4c0-0.1,0-0.2,0-0.3c0-0.4,0.3-0.7,0.6-0.8c0.1,0,0.2,0,0.4,0
	c0,0,0,0,0,0c0.1,0,0.3,0.1,0.4,0.2c0,0,0,0,0,0c0,0.1,0.1,0.1,0.1,0.2l0,0c0,0.1,0.1,0.2,0.1,0.3C22.2,18.8,21.9,19.3,21.4,19.3
	C21.4,19.3,21.4,19.3,21.4,19.3L21.4,19.3z"/>
<path class="st8" d="M20.7,18.5c0,0.3,0.2,0.5,0.5,0.6c0,0,0,0,0,0c0.3,0,0.6-0.3,0.6-0.6c0-0.3-0.2-0.5-0.5-0.6c0,0,0,0,0,0
	C20.9,18,20.7,18.2,20.7,18.5z"/>
<path class="st16" d="M22.2,18.5c0-0.5-0.4-0.9-0.8-0.9c0.1,0,0.1,0.1,0.1,0.2c0,0-0.1,0.1-0.1,0.1c0.3,0,0.5,0.3,0.5,0.6
	c0,0.3-0.3,0.6-0.6,0.6c0,0,0,0,0,0c-0.1,0-0.1,0.1-0.1,0.2c0,0.1,0.1,0.1,0.1,0.2c0,0,0,0,0,0C21.8,19.4,22.2,19,22.2,18.5
	L22.2,18.5z"/>
<path class="st17" d="M21.3,17.6c-0.1,0-0.2,0-0.2,0V18c0.1,0,0.1,0,0.2,0c0.3,0,0.5,0.2,0.6,0.5c0-0.1,0.1-0.2,0.2-0.1
	c0.1,0,0.1,0.1,0.1,0.1c0,0,0,0,0,0C22.1,18,21.7,17.6,21.3,17.6L21.3,17.6z"/>
<path class="st16" d="M20.7,18.7c0-0.1,0-0.1,0-0.2c0-0.3,0.3-0.6,0.6-0.6c0,0,0,0,0,0c0.1,0,0.2-0.1,0.1-0.2c0-0.1-0.1-0.1-0.1-0.1
	c0,0,0,0-0.1,0c-0.5,0-0.9,0.4-0.9,0.9c0,0.1,0,0.2,0,0.2C20.4,18.7,20.7,18.7,20.7,18.7z"/>
<path class="st17" d="M21.3,19.1C21.3,19.1,21.3,19.1,21.3,19.1c-0.3,0-0.6-0.2-0.6-0.6c0,0,0,0,0-0.1h-0.3c0,0,0,0,0,0.1
	c0,0.5,0.4,0.9,0.9,0.9c0,0,0,0,0,0c0.1,0,0.1-0.1,0.1-0.2C21.4,19.2,21.4,19.1,21.3,19.1L21.3,19.1z"/>
<path class="st8" d="M21.9,18.5c0,0.3-0.3,0.6-0.6,0.6c0,0,0,0,0,0c-0.4,0-0.6-0.3-0.6-0.6c0-0.3,0.3-0.6,0.6-0.6c0,0,0,0,0,0
	C21.6,17.9,21.9,18.2,21.9,18.5L21.9,18.5z"/>
<path class="st18" d="M20.9,19.9c-0.4-0.3-0.7-0.8-0.7-1.3c0-0.6,0.3-1.1,0.7-1.3v-0.1c-0.1,0-0.2,0.1-0.4,0.1c0,0-0.1,0-0.1,0
	l-0.3-0.2c0,0-0.1,0-0.1,0l-0.2,0.2c0,0,0,0.1,0,0.1l0.2,0.3c0,0,0,0.1,0,0.1c-0.1,0.1-0.1,0.2-0.1,0.3c0,0,0,0.1-0.1,0.1l-0.3,0.1
	c0,0-0.1,0-0.1,0.1v0.3c0,0,0,0.1,0.1,0.1l0.3,0.1c0,0,0.1,0,0.1,0.1c0,0.1,0.1,0.2,0.1,0.3c0,0,0,0.1,0,0.1l-0.2,0.3
	c0,0,0,0.1,0,0.1l0.2,0.2c0,0,0.1,0,0.1,0l0.3-0.2c0,0,0.1,0,0.1,0C20.7,19.8,20.8,19.9,20.9,19.9C20.9,19.9,20.9,19.9,20.9,19.9z"
	/>
<path class="st15" d="M19.3,16.9l-0.9-0.1c0,0-0.1,0-0.1-0.1c0-0.1,0-0.1-0.1-0.2c0,0,0-0.1,0-0.1l0.6-0.6c0,0,0-0.1,0-0.2l-0.4-0.5
	c0,0-0.1-0.1-0.2,0l-0.8,0.4c0,0-0.1,0-0.1,0c-0.1,0-0.1-0.1-0.2-0.1c0,0-0.1-0.1-0.1-0.1l0.1-0.9c0-0.1,0-0.1-0.1-0.1L16.7,14
	c-0.1,0-0.1,0-0.1,0.1l-0.4,0.8c0,0-0.1,0.1-0.1,0.1c0,0-0.1,0-0.1,0c0,0-0.1,0-0.1,0c0,0-0.1,0-0.1-0.1l-0.1-0.3L15.3,14
	c0-0.1-0.1-0.1-0.1-0.1l-0.6,0.2c-0.1,0-0.1,0.1-0.1,0.1l0.1,0.9c0,0,0,0.1-0.1,0.1c-0.1,0-0.1,0.1-0.2,0.1c0,0-0.1,0-0.1,0L13.5,15
	c-0.1,0-0.1,0-0.2,0L13,15.6c0,0,0,0.1,0,0.2l0.6,0.6c0,0,0,0.1,0,0.1c0,0.1,0,0.1-0.1,0.2c0,0-0.1,0.1-0.1,0.1l-0.7,0.1
	c0,0.3,0.1,0.6,0.2,1l0.5,0.1c0,0,0.1,0,0.1,0.1c0,0.1,0,0.1,0.1,0.2c0,0,0,0.1,0,0.1l-0.3,0.3c0.2,0.3,0.4,0.6,0.6,0.8l0.3-0.2
	c0,0,0.1,0,0.1,0c0,0,0,0,0,0c0,0,0,0,0,0c0,0,0.1,0.1,0.2,0.1c0,0,0.1,0.1,0.1,0.1L14.6,20c0.3,0.2,0.5,0.4,0.8,0.5l0.3-0.6
	c0,0,0.1-0.1,0.1-0.1h0.2c0,0,0.1,0,0.1,0.1l0.4,0.8c0,0.1,0.1,0.1,0.1,0.1l0.6-0.2c0.1,0,0.1-0.1,0.1-0.1l-0.1-0.9
	c0-0.1,0-0.1,0.1-0.1c0.1,0,0.1-0.1,0.2-0.1c0,0,0.1,0,0.1,0l0.8,0.4c0.1,0,0.1,0,0.2,0l0.4-0.5c0-0.1,0-0.1,0-0.2l-0.6-0.6
	c0,0,0-0.1,0-0.1c0-0.1,0.1-0.1,0.1-0.2c0,0,0-0.1,0.1-0.1l0.9-0.1c0.1,0,0.1-0.1,0.1-0.1v-0.6C19.4,17,19.4,17,19.3,16.9z
	 M15.2,18.3C15.2,18.3,15.2,18.2,15.2,18.3c-0.1-0.1-0.1-0.1-0.2-0.2c0,0-0.1-0.1-0.1-0.1c0-0.1-0.1-0.1-0.1-0.2c0-0.1,0-0.1,0-0.2
	c0-0.1,0-0.2,0-0.2v0c0-0.6,0.5-1.2,1.2-1.2c0,0,0.1,0,0.1,0l0.1,0c0,0,0,0,0.1,0c0,0,0.1,0,0.1,0c0,0,0.1,0,0.1,0s0.1,0,0.1,0
	l0.1,0c0,0,0,0,0.1,0.1l0.1,0.1c0.1,0.1,0.1,0.1,0.1,0.2c0,0,0,0.1,0.1,0.1c0,0,0,0.1,0,0.1c0,0,0,0.1,0,0.1c0,0,0,0.1,0,0.1
	c0,0.1,0,0.2,0,0.2l0,0.2c0,0,0,0.1,0,0.1l-0.2,0.4c0,0,0,0.1-0.1,0.1c0,0,0,0-0.1,0.1c0,0-0.1,0.1-0.1,0.1c0,0-0.1,0-0.1,0.1
	c-0.1,0-0.1,0.1-0.2,0.1c0,0-0.1,0-0.1,0C15.9,18.6,15.6,18.5,15.2,18.3C15.3,18.3,15.3,18.3,15.2,18.3z"/>
<path class="st18" d="M15.3,14c0-0.1-0.1-0.1-0.1-0.1l-0.6,0.2c-0.1,0-0.1,0.1-0.1,0.1l0.1,0.9c0,0,0,0.1-0.1,0.1
	c-0.1,0-0.1,0.1-0.2,0.1c0,0-0.1,0-0.1,0L13.5,15c-0.1,0-0.1,0-0.2,0L13,15.6c0,0,0,0.1,0,0.2l0.6,0.6c0,0,0,0.1,0,0.1
	c0,0.1,0,0.1-0.1,0.2c0,0-0.1,0.1-0.1,0.1l-0.7,0.1c0,0.3,0.1,0.6,0.2,1l0.5,0.1c0,0,0.1,0,0.1,0.1c0,0.1,0,0.1,0.1,0.2
	c0,0,0,0.1,0,0.1l-0.3,0.3c0.2,0.3,0.4,0.6,0.6,0.8l0.3-0.2c0,0,0.1,0,0.1,0c0,0,0,0,0,0l0,0v0c-0.1-0.4-0.2-0.9-0.2-1.4
	c0,0,0,0,0-0.1c0-0.2,0-0.4,0-0.6c0-0.3,0.1-0.6,0.2-0.9c0,0,0-0.1,0-0.1c0.2-0.7,0.6-1.4,1.1-1.8L15.3,14z"/>
<path class="st17" d="M17.2,16.1c-0.3-0.3-0.8-0.5-1.2-0.5c-0.1,0-0.2,0-0.3,0c-0.5,0.1-0.9,0.4-1.2,0.8c-0.2,0.3-0.3,0.6-0.3,0.9
	c0,0.2,0,0.3,0.1,0.5c0.1,0.3,0.2,0.6,0.5,0.8c0.4,0.4,0.9,0.6,1.5,0.5c0.4,0,0.8-0.2,1-0.5c0.2-0.2,0.4-0.6,0.5-0.9v0
	c0-0.1,0-0.2,0-0.3C17.7,16.9,17.5,16.4,17.2,16.1z M15.3,18.3C15.3,18.3,15.3,18.3,15.3,18.3c-0.1-0.1-0.1-0.1-0.2-0.1
	c0,0-0.1-0.1-0.1-0.1c0,0-0.1-0.1-0.1-0.1c0-0.1-0.1-0.1-0.1-0.2c0-0.1,0-0.1,0-0.2c0-0.1,0-0.2,0-0.2v0c0-0.6,0.5-1.2,1.2-1.2
	c0,0,0.1,0,0.1,0l0.1,0c0,0,0,0,0.1,0c0,0,0.1,0,0.1,0c0,0,0.1,0,0.1,0c0,0,0.1,0,0.1,0l0.1,0c0,0,0,0,0.1,0.1l0.1,0.1
	c0.1,0.1,0.1,0.1,0.1,0.2c0,0,0,0.1,0.1,0.1s0,0.1,0,0.1c0,0,0,0.1,0,0.1c0,0,0,0.1,0,0.1c0,0.1,0,0.2,0,0.2l0,0.2c0,0,0,0.1,0,0.1
	l-0.2,0.4c0,0,0,0.1-0.1,0.1c0,0,0,0-0.1,0.1c0,0-0.1,0.1-0.1,0.1c0,0-0.1,0-0.1,0.1c-0.1,0-0.1,0.1-0.2,0.1c0,0-0.1,0-0.1,0
	c-0.1,0-0.2,0-0.2,0C15.7,18.5,15.5,18.5,15.3,18.3z"/>
<path class="st16" d="M14.5,17.4c0.1,0,0.3-0.1,0.3-0.2c0-0.2,0.2-0.4,0.3-0.6c0.2-0.2,0.4-0.3,0.6-0.3c0.1,0,0.2-0.1,0.2-0.3
	c0-0.2-0.2-0.3-0.3-0.3c-0.3,0.1-0.7,0.2-0.9,0.5c-0.2,0.2-0.4,0.6-0.5,0.9C14.2,17.2,14.3,17.4,14.5,17.4z M17.4,17.4
	c-0.1,0-0.3,0.1-0.3,0.2c0,0.2-0.2,0.4-0.3,0.6c-0.2,0.2-0.4,0.3-0.6,0.3c-0.1,0-0.2,0.1-0.2,0.3c0,0.2,0.2,0.3,0.3,0.3
	c0.3-0.1,0.7-0.2,0.9-0.5c0.2-0.2,0.4-0.6,0.5-0.9C17.7,17.6,17.6,17.4,17.4,17.4z"/>
</svg>
